<?xml version="1.0" encoding="UTF-8" standalone="no"?>
<!-- Created with Inkscape (http://www.inkscape.org/) -->

<svg
   width="60mm"
   height="30mm"
   viewBox="0 0 226.77156 113.38578"
   version="1.1"
   id="svg1"
   inkscape:version="1.3 (0e150ed6c4, 2023-07-21)"
   sodipodi:docname="SaveEat_NewLogo_404.svg"
   xmlns:inkscape="http://www.inkscape.org/namespaces/inkscape"
   xmlns:sodipodi="http://sodipodi.sourceforge.net/DTD/sodipodi-0.dtd"
   xmlns="http://www.w3.org/2000/svg"
   xmlns:svg="http://www.w3.org/2000/svg">
  <sodipodi:namedview
     id="namedview1"
     pagecolor="#ffffff"
     bordercolor="#000000"
     borderopacity="0.25"
     inkscape:showpageshadow="2"
     inkscape:pageopacity="0.0"
     inkscape:pagecheckerboard="0"
     inkscape:deskcolor="#d1d1d1"
     inkscape:document-units="mm"
     showguides="true"
     inkscape:zoom="2.114039"
     inkscape:cx="160.59306"
     inkscape:cy="62.203204"
     inkscape:window-width="1920"
     inkscape:window-height="1017"
     inkscape:window-x="-8"
     inkscape:window-y="-8"
     inkscape:window-maximized="1"
     inkscape:current-layer="layer1" />
  <defs
     id="defs1" />
  <g
     inkscape:label="Layer 1"
     inkscape:groupmode="layer"
     id="layer1">
    <path
       style="-inkscape-font-specification:'Room No.703';stroke-width:7.55906;stroke-linecap:round;stroke-linejoin:round;paint-order:fill markers stroke"
       d="m 35.486888,28.753873 q 0.453332,-0.906664 0.906664,-1.926661 0.566665,-1.13333 1.586662,-1.813328 1.019997,-0.793331 2.606659,-1.13333 1.586662,-0.339999 4.193321,0.339999 2.493326,0.906664 3.739989,1.359996 1.359996,0.339999 1.926661,0.906664 0.679998,0.453332 0.679998,1.246663 0.113333,0.793331 0,2.379993 -0.566665,1.926661 -1.13333,3.39999 -0.566665,1.473329 -1.246663,2.833325 -0.566665,1.359996 -1.246663,2.833325 -0.679998,1.473329 -1.359996,3.173324 -1.359996,3.286657 -3.286657,7.139979 -1.926661,3.853322 -3.853322,7.706644 l 14.73329,-1.019997 q 0,-5.213318 0,-10.653302 0.113333,-5.553317 0.226666,-10.539969 0.113333,-4.986652 0.226666,-9.06664 0.113333,-4.079988 0.339999,-6.573314 0.679998,-2.153327 1.473329,-3.286657 0.793331,-1.13333 1.813328,-1.586662 1.13333,-0.453332 2.493326,-0.453332 1.359996,0 3.173324,0 2.493326,0 4.079988,1.699995 1.699995,1.699995 2.719992,4.419987 1.019997,2.719992 1.473329,6.233315 0.566665,3.39999 0.679998,6.913313 0.226666,3.513323 0.113333,6.79998 0,3.173324 0,5.553317 l -0.113333,9.293306 q 1.359996,-0.113333 2.833325,0 1.586662,0.113333 2.946658,0.679998 1.359996,0.453332 2.379993,1.586662 1.019997,1.13333 1.359996,2.946658 0.226666,1.813328 -0.566665,3.059991 -0.793331,1.246663 -2.26666,2.153327 -1.359996,0.793331 -3.286657,1.359996 -1.813328,0.566665 -3.626656,0.906664 l -0.226666,19.719942 q -0.113333,1.473329 -0.339999,3.059991 -0.113333,1.699995 -0.793331,3.059991 -0.679998,1.473329 -2.153327,2.493326 -1.359996,1.13333 -3.853322,1.473329 -2.719992,0 -4.53332,0 -1.813328,0.113333 -3.059991,-0.226666 -1.13333,-0.339999 -1.926661,-1.359996 -0.793331,-1.019997 -1.359996,-3.059991 -0.113333,-2.719992 -0.226666,-4.759986 0,-2.039994 0,-3.853322 0,-1.926661 0,-3.853322 0,-1.926661 0.113333,-4.646653 0,-1.13333 -0.113333,-2.606659 0,-1.473329 0,-3.059991 -3.739989,0.339999 -7.819977,0.679998 -4.079988,0.226666 -7.93331,0.453332 -3.853322,0.113333 -7.479978,0.226666 -3.513323,0 -6.233315,-0.113333 -1.586662,-0.113333 -3.059991,-0.453332 -1.359996,-0.339999 -2.26666,-0.906664 -0.906664,-0.566665 -1.246663,-1.359996 -0.226666,-0.906664 0.566665,-2.039994 0.453332,-1.473329 1.473329,-3.513323 1.019997,-2.153327 2.379993,-5.099985 z M 139.63984,44.50716 q 0.34,4.53332 0.11333,10.086637 -0.11333,5.553317 -1.13333,11.219967 -1.01999,5.66665 -3.05999,11.106634 -1.92666,5.326651 -5.09998,9.519972 -3.05999,4.306654 -7.59331,7.026646 -4.41999,2.719992 -10.42664,3.059991 -6.91331,0.453332 -12.12663,-2.833325 Q 95.213304,90.520358 91.926647,84.967041 88.63999,79.413724 87.166661,72.160412 85.693332,64.9071 86.033331,57.313789 86.37333,49.607145 88.526657,42.2405 q 2.26666,-7.479978 6.233315,-13.259961 3.966655,-5.893316 9.746638,-9.406639 5.89332,-3.626656 13.59996,-3.739989 3.05999,0 6.45998,1.699995 3.39999,1.699995 6.45998,5.326651 3.05999,3.513323 5.32665,8.953307 2.38,5.326651 3.28666,12.693296 z m -27.53992,32.86657 q 2.15333,0 4.19332,-1.13333 2.04,-1.13333 3.62666,-3.626656 1.58666,-2.606659 2.49332,-6.573314 1.02,-4.079988 1.02,-9.746638 0,-2.379993 -0.34,-5.893316 -0.34,-3.626656 -1.35999,-6.913313 -0.90667,-3.39999 -2.72,-5.779983 -1.69999,-2.379993 -4.53332,-2.26666 -2.03999,0.113333 -4.07998,1.699995 -1.92666,1.586662 -3.51333,4.193321 -1.47333,2.493326 -2.60666,5.66665 -1.01999,3.173324 -1.24666,6.346648 -0.90666,12.806629 1.02,18.473279 2.03999,5.553317 8.04664,5.553317 z m 51.45316,-48.619857 q 0.45333,-0.906664 0.90667,-1.926661 0.56666,-1.13333 1.58666,-1.813328 1.01999,-0.793331 2.60666,-1.13333 1.58666,-0.339999 4.19332,0.339999 2.49332,0.906664 3.73999,1.359996 1.35999,0.339999 1.92666,0.906664 0.68,0.453332 0.68,1.246663 0.11333,0.793331 0,2.379993 -0.56667,1.926661 -1.13333,3.39999 -0.56667,1.473329 -1.24667,2.833325 -0.56666,1.359996 -1.24666,2.833325 -0.68,1.473329 -1.36,3.173324 -1.35999,3.286657 -3.28665,7.139979 -1.92666,3.853322 -3.85333,7.706644 l 14.73329,-1.019997 q 0,-5.213318 0,-10.653302 0.11334,-5.553317 0.22667,-10.539969 0.11333,-4.986652 0.22667,-9.06664 0.11333,-4.079988 0.34,-6.573314 0.67999,-2.153327 1.47332,-3.286657 0.79334,-1.13333 1.81333,-1.586662 1.13333,-0.453332 2.49333,-0.453332 1.35999,0 3.17332,0 2.49333,0 4.07999,1.699995 1.7,1.699995 2.71999,4.419987 1.02,2.719992 1.47333,6.233315 0.56667,3.39999 0.68,6.913313 0.22667,3.513323 0.11333,6.79998 0,3.173324 0,5.553317 l -0.11333,9.293306 q 1.36,-0.113333 2.83332,0 1.58667,0.113333 2.94666,0.679998 1.36,0.453332 2.38,1.586662 1.01999,1.13333 1.35999,2.946658 0.22667,1.813328 -0.56666,3.059991 -0.79333,1.246663 -2.26666,2.153327 -1.36,0.793331 -3.28666,1.359996 -1.81333,0.566665 -3.62666,0.906664 l -0.22666,19.719942 q -0.11334,1.473329 -0.34,3.059991 -0.11333,1.699995 -0.79333,3.059991 -0.68,1.473329 -2.15333,2.493326 -1.36,1.13333 -3.85332,1.473329 -2.71999,0 -4.53332,0 -1.81333,0.113333 -3.05999,-0.226666 -1.13333,-0.339999 -1.92666,-1.359996 -0.79333,-1.019997 -1.36,-3.059991 -0.11333,-2.719992 -0.22667,-4.759986 0,-2.039994 0,-3.853322 0,-1.926661 0,-3.853322 0,-1.926661 0.11334,-4.646653 0,-1.13333 -0.11334,-2.606659 0,-1.473329 0,-3.059991 -3.73998,0.339999 -7.81997,0.679998 -4.07999,0.226666 -7.93331,0.453332 -3.85333,0.113333 -7.47998,0.226666 -3.51332,0 -6.23332,-0.113333 -1.58666,-0.113333 -3.05999,-0.453332 -1.35999,-0.339999 -2.26666,-0.906664 -0.90666,-0.566665 -1.24666,-1.359996 -0.22667,-0.906664 0.56666,-2.039994 0.45334,-1.473329 1.47333,-3.513323 1.02,-2.153327 2.38,-5.099985 z"
       id="text20"
       transform="rotate(0.47985983)"
       aria-label="404" />
  </g>
</svg>
