<?xml version="1.0" encoding="UTF-8" standalone="no"?>
<!-- Created with Inkscape (http://www.inkscape.org/) -->

<svg
   width="120mm"
   height="50mm"
   viewBox="0 0 453.54313 188.97638"
   version="1.1"
   id="svg1"
   inkscape:version="1.3 (0e150ed6c4, 2023-07-21)"
   sodipodi:docname="Logo_SqureType_NoIcon.svg"
   xmlns:inkscape="http://www.inkscape.org/namespaces/inkscape"
   xmlns:sodipodi="http://sodipodi.sourceforge.net/DTD/sodipodi-0.dtd"
   xmlns="http://www.w3.org/2000/svg"
   xmlns:svg="http://www.w3.org/2000/svg">
  <sodipodi:namedview
     id="namedview1"
     pagecolor="#ffffff"
     bordercolor="#000000"
     borderopacity="0.25"
     inkscape:showpageshadow="2"
     inkscape:pageopacity="0.0"
     inkscape:pagecheckerboard="0"
     inkscape:deskcolor="#d1d1d1"
     inkscape:document-units="mm"
     showguides="true"
     inkscape:zoom="1.4948513"
     inkscape:cx="193.33027"
     inkscape:cy="63.21699"
     inkscape:window-width="1920"
     inkscape:window-height="1017"
     inkscape:window-x="-8"
     inkscape:window-y="-8"
     inkscape:window-maximized="1"
     inkscape:current-layer="layer1">
    <sodipodi:guide
       position="0,94.488181"
       orientation="0,-1"
       id="guide2"
       inkscape:locked="false" />
    <sodipodi:guide
       position="226.77832,249.852"
       orientation="1,0"
       id="guide1"
       inkscape:locked="false" />
  </sodipodi:namedview>
  <defs
     id="defs1" />
  <g
     inkscape:label="Layer 1"
     inkscape:groupmode="layer"
     id="layer1">
    <path
       style="-inkscape-font-specification:'Room No.703';stroke-width:7.55906;stroke-linecap:round;stroke-linejoin:round;paint-order:fill markers stroke"
       d="m 74.175938,108.04236 q -5.439984,0 -10.426636,-1.13333 -4.986652,-1.01999 -8.839974,-3.73998 -3.739989,-2.60666 -6.119982,-7.02665 -2.26666,-4.419987 -2.379993,-11.106634 -0.113333,-2.833325 1.473329,-4.193321 1.699995,-1.473329 3.853322,-1.473329 2.153327,-0.113333 4.079988,1.13333 1.926661,1.13333 2.493326,3.39999 1.246663,3.966655 3.739989,6.233315 2.493326,2.26666 5.439984,3.173324 2.946658,0.793331 6.006649,0.453332 3.173324,-0.339999 5.779983,-1.586662 2.606659,-1.359996 4.193321,-3.39999 1.586662,-2.153327 1.586662,-4.759986 0,-3.966655 -1.473329,-5.779983 -1.473329,-1.926661 -4.079988,-2.833325 -2.606659,-1.019997 -6.233315,-1.699995 -3.513323,-0.793331 -7.706644,-2.493326 -3.39999,-1.13333 -6.459981,-3.059991 -2.946658,-2.039994 -4.986652,-5.099985 -1.926661,-3.173324 -2.493326,-7.819977 -0.453332,-4.646653 1.13333,-11.3333 1.13333,-4.53332 3.739989,-7.593311 2.719992,-3.173324 6.459981,-4.986652 3.739989,-1.926661 8.046643,-2.719992 4.419987,-0.793331 8.839974,-0.679998 4.53332,0 8.726641,0.793331 4.306654,0.793331 7.706644,2.039994 2.606659,1.019997 3.286657,3.286657 0.79333,2.26666 0.113333,4.53332 -0.566665,2.26666 -2.379993,3.966655 -1.813328,1.586662 -4.193321,1.246663 -3.739989,-0.453332 -7.706644,-0.793331 -3.853322,-0.339999 -7.139979,0.226666 -3.286657,0.453332 -5.439984,2.379993 -2.153327,1.813328 -2.26666,5.66665 -0.113333,2.946658 1.13333,4.759986 1.359996,1.813328 3.626656,3.059991 2.26666,1.13333 5.099985,2.039994 2.946658,0.793331 5.893316,1.813328 3.059991,1.019997 5.893316,2.606659 2.833325,1.473329 4.986652,3.966655 2.153327,2.493326 3.286653,6.346648 1.13333,3.739989 0.79333,9.293306 -0.33999,5.779983 -2.946653,10.086637 -2.493326,4.193321 -6.346648,7.026644 -3.739989,2.94666 -8.499975,4.30666 -4.646653,1.47332 -9.293306,1.47332 z M 160.08245,53.642525 q -2.04,5.099985 -2.83333,10.539969 -0.79333,5.326651 -1.36,10.766635 -0.56666,6.119982 -0.67999,12.126631 0,5.893316 0.90666,11.899965 0.45333,3.286655 -0.79333,4.079985 -1.13333,0.79333 -4.07999,0.22667 -6.00665,-1.47333 -8.04664,-4.986653 -2.04,-3.626656 -2.26666,-10.426636 -1.81333,3.173324 -4.19332,6.686647 -2.38,3.513323 -5.21332,6.459982 -2.37999,2.60666 -6.34665,2.94666 -3.96665,0.34 -7.81998,-1.36 -3.73998,-1.58666 -6.68664,-4.873318 -2.83333,-3.39999 -2.94666,-8.046643 -0.45333,-5.439984 0.22667,-10.766635 0.67999,-5.439984 2.49332,-10.19997 1.92666,-4.759986 4.98665,-8.613308 3.17333,-3.853322 7.47998,-6.346648 2.49333,-1.359996 6.00665,-1.586662 3.62666,-0.339999 7.02665,0.453332 3.51332,0.793331 6.11998,2.493326 2.71999,1.586662 3.51332,3.966655 1.02,-2.153327 2.15333,-4.306654 1.24666,-2.26666 2.71999,-3.853322 0.79333,-0.906664 2.15333,-1.246663 1.35999,-0.453332 2.83332,-0.226666 1.47333,0.113333 2.71999,0.793331 1.24667,0.566665 1.92667,1.586662 0.22666,0.453332 0.11333,0.906664 0,0.453332 -0.11333,0.906664 z M 137.52918,75.74246 q 0.11333,-0.226666 0.11333,-0.906664 -0.56666,-6.913313 -1.69999,-9.633305 -1.13333,-2.719992 -2.60666,-2.493326 -1.47333,0.226666 -3.05999,2.833325 -1.47333,2.606659 -2.83333,6.233315 -1.35999,3.626656 -2.37999,7.819977 -1.02,4.079988 -1.47333,7.366645 -0.34,3.286657 0.11333,5.213318 0.45333,1.926661 2.04,1.13333 1.58666,-0.793331 4.41998,-4.873319 2.94666,-4.079988 7.36665,-12.693296 z m 49.86642,13.033295 q 1.92666,-5.893316 3.28666,-9.746638 1.35999,-3.853322 2.49332,-6.79998 1.13333,-3.059991 2.04,-5.893316 1.01999,-2.946658 2.26666,-7.026646 1.58666,-4.873319 4.30665,-6.573314 2.83333,-1.813328 5.32665,-1.246663 2.60666,0.453332 4.07999,2.946658 1.58666,2.379993 0.56667,5.893316 -1.24667,4.079988 -2.72,9.06664 -1.35999,4.873319 -3.05999,9.973304 -1.69999,4.986652 -3.62665,9.746638 -1.92666,4.646653 -4.19332,8.386642 -2.26667,3.626654 -4.87332,5.893314 -2.49333,2.26666 -5.43999,2.26666 -4.53332,0.11333 -7.93331,-3.28666 -3.39999,-3.399985 -6.00665,-9.406634 -2.60666,-6.006649 -4.75998,-14.166625 -2.15333,-8.273309 -4.19332,-17.793281 -0.79334,-3.966655 0.90666,-6.346648 1.69999,-2.493326 4.19332,-3.059991 2.60666,-0.679998 5.09999,0.679998 2.60665,1.359996 3.62665,4.873319 1.13333,3.853322 1.81333,6.79998 0.68,2.946658 1.47333,6.233315 0.90666,3.286657 2.03999,7.706644 1.24667,4.306654 3.28666,10.879968 z m 46.46647,-5.66665 q -1.47333,-0.226666 -1.7,-0.113333 -0.11333,0 -0.22666,1.019997 -0.56667,4.53332 0.79333,7.253312 1.35999,2.606659 3.96665,3.513323 2.72,0.793331 6.23332,-0.113333 3.51332,-0.906664 7.36664,-3.626656 1.81333,-1.246663 4.07999,-1.246663 2.26666,-0.113333 3.85332,0.793331 1.7,0.793331 2.26666,2.493326 0.56667,1.699995 -0.90666,3.966655 -3.28666,4.759986 -7.59331,6.573316 -4.30666,1.92666 -10.08664,2.03999 -5.77998,0.11333 -10.6533,-1.35999 -4.87332,-1.36 -8.49998,-4.306658 -3.51332,-2.833325 -5.55331,-7.026646 -1.92666,-4.193321 -1.92666,-9.519972 0.11333,-5.099985 0.79333,-9.406639 0.79333,-4.306654 2.49332,-7.93331 1.7,-3.739989 4.41999,-6.913313 2.83333,-3.173324 6.91331,-6.119982 4.75999,-3.286657 10.76664,-3.739989 6.11998,-0.453332 11.3333,1.586662 5.32665,2.039994 8.49997,6.573314 3.17333,4.419987 2.15333,10.993301 -0.79333,4.646653 -3.62666,7.819977 -2.83332,3.173324 -6.79998,4.986652 -3.96665,1.813328 -8.83997,2.26666 -4.75999,0.453332 -9.51997,-0.453332 z m 9.17997,-21.873269 q -3.62665,2.606659 -5.43998,6.006649 -1.7,3.286657 -3.51333,7.819977 3.17333,0 5.89332,-0.453332 2.71999,-0.453332 4.87332,-1.586662 2.15333,-1.246663 3.51332,-3.286657 1.47333,-2.153327 1.92666,-5.439984 0.11334,-1.586662 -0.56666,-2.606659 -0.68,-1.019997 -1.81333,-1.359996 -1.13333,-0.453332 -2.49333,-0.113333 -1.24666,0.226666 -2.37999,1.019997 z M 305.8286,28.029267 q 3.39999,-0.339999 4.98666,0.566665 1.58666,0.906664 2.03999,2.153327 0.56667,1.246663 0.34,2.379993 -0.11333,1.019997 -0.11333,0.906664 0,-0.113333 -0.11334,1.13333 -0.11333,1.13333 -0.79333,2.719992 -0.68,1.473329 -2.15332,2.833325 -1.36,1.359996 -4.07999,1.699995 -3.51333,0.566665 -5.43999,0.679998 -1.92666,0.113333 -3.39999,0.226666 -1.47333,0.113333 -3.17332,0.339999 -1.7,0.113333 -4.75999,0.679998 -1.69999,0.226666 -2.37999,1.699995 -0.56666,1.359996 -0.68,2.833325 -0.22666,1.926661 -0.34,3.059991 0,1.13333 -0.11333,2.039994 0,0.906664 -0.11333,1.813328 0,0.793331 -0.11334,2.153327 -0.22666,1.586662 0,2.379993 0.22667,0.679998 2.15333,0.566665 3.96666,-0.453332 6.34665,-0.679998 2.49333,-0.226666 4.64665,-0.339999 2.26666,-0.113333 4.75999,-0.339999 2.49332,-0.226666 6.45998,-0.679998 1.36,-0.113333 2.15333,0.566665 0.79333,0.679998 1.24666,1.699995 0.45333,1.019997 0.56666,2.039994 0.22667,0.906664 0.22667,1.246663 0,0.453332 0.11333,1.586662 0.11334,1.13333 -0.34,2.493326 -0.45333,1.246663 -1.58666,2.379993 -1.13333,1.13333 -3.51332,1.586662 -3.96666,0.679998 -6.34665,1.019997 -2.26666,0.226666 -4.30665,0.453332 -1.92666,0.113333 -4.19332,0.453332 -2.15333,0.226666 -5.89332,0.906664 -1.92666,0.339999 -2.71999,1.246663 -0.68,0.906664 -0.90667,2.833325 -0.22666,2.039994 -0.33999,2.606659 -0.11334,0.566665 -0.22667,1.019997 0,0.339999 -0.11333,1.13333 0,0.793331 -0.11334,3.059991 0,2.039994 0.79333,2.26666 0.90667,0.226666 2.60666,0.113333 4.41999,-0.113333 9.29331,-0.339999 4.87332,-0.339999 12.23996,-1.246663 2.72,-0.339999 3.85333,1.246663 1.24666,1.473329 1.47332,3.513323 0.22667,1.926661 0,3.739989 -0.22666,1.699995 -0.33999,2.039994 -1.24667,2.266657 -3.96666,2.719987 -2.60666,0.45334 -5.21332,0.90667 -4.19332,0.68 -7.36664,1.02 -3.05999,0.45333 -5.89332,0.56666 -2.83332,0.22667 -5.77998,0.34 -2.94666,0.11333 -6.79998,0.22667 -5.09999,0.11333 -8.04664,-1.81333 -2.94666,-1.92666 -2.83333,-6.573316 0.11333,-6.79998 0.34,-14.053292 0.34,-7.253312 0.68,-14.506624 0.45333,-7.366645 0.90666,-14.506624 0.45333,-7.253312 1.02,-13.939959 0.34,-2.606659 1.58666,-4.193321 1.24666,-1.586662 2.94666,-2.493326 1.81333,-0.906664 3.85332,-1.359996 2.03999,-0.453332 3.96666,-0.793331 z m 64.03298,25.613258 q -2.03999,5.099985 -2.83332,10.539969 -0.79333,5.326651 -1.36,10.766635 -0.56666,6.119982 -0.68,12.126631 0,5.893316 0.90667,11.899965 0.45333,3.286655 -0.79333,4.079985 -1.13333,0.79333 -4.07999,0.22667 -6.00665,-1.47333 -8.04665,-4.986653 -2.03999,-3.626656 -2.26666,-10.426636 -1.81332,3.173324 -4.19332,6.686647 -2.37999,3.513323 -5.21331,6.459982 -2.38,2.60666 -6.34665,2.94666 -3.96666,0.34 -7.81998,-1.36 -3.73999,-1.58666 -6.68665,-4.873318 -2.83332,-3.39999 -2.94665,-8.046643 -0.45334,-5.439984 0.22666,-10.766635 0.68,-5.439984 2.49333,-10.19997 1.92666,-4.759986 4.98665,-8.613308 3.17332,-3.853322 7.47998,-6.346648 2.49332,-1.359996 6.00665,-1.586662 3.62665,-0.339999 7.02664,0.453332 3.51333,0.793331 6.11998,2.493326 2.72,1.586662 3.51333,3.966655 1.01999,-2.153327 2.15332,-4.306654 1.24667,-2.26666 2.72,-3.853322 0.79333,-0.906664 2.15332,-1.246663 1.36,-0.453332 2.83333,-0.226666 1.47333,0.113333 2.71999,0.793331 1.24666,0.566665 1.92666,1.586662 0.22667,0.453332 0.11333,0.906664 0,0.453332 -0.11333,0.906664 z M 347.30831,75.74246 q 0.11334,-0.226666 0.11334,-0.906664 -0.56667,-6.913313 -1.7,-9.633305 -1.13333,-2.719992 -2.60666,-2.493326 -1.47333,0.226666 -3.05999,2.833325 -1.47333,2.606659 -2.83332,6.233315 -1.36,3.626656 -2.38,7.819977 -1.01999,4.079988 -1.47332,7.366645 -0.34,3.286657 0.11333,5.213318 0.45333,1.926661 2.03999,1.13333 1.58666,-0.793331 4.41999,-4.873319 2.94666,-4.079988 7.36664,-12.693296 z m 53.49304,19.26661 q -0.11333,1.586662 -0.34,3.173324 -0.11333,1.586662 -0.68,2.946656 -0.56666,1.36 -1.81332,2.26666 -1.24667,1.02 -3.51333,1.24666 -2.26666,0 -3.85332,0 -1.47333,0 -2.49332,-0.33999 -1.02,-0.34 -1.58667,-1.36 -0.56666,-0.90666 -0.90666,-2.83333 -0.34,-5.09998 -0.22667,-9.519967 0.22667,-4.53332 0.45334,-9.746638 0,-3.739989 0.11333,-9.406639 0.22666,-5.66665 0.45333,-12.013298 -3.39999,0.226666 -7.13998,-0.113333 -3.62665,-0.339999 -6.91331,-2.153327 -1.58666,-0.566665 -2.15333,-1.926661 -0.45333,-1.359996 0,-2.719992 0.45333,-1.473329 1.81333,-2.833325 1.36,-1.359996 3.62666,-1.926661 3.28665,-0.679998 6.00664,-1.13333 2.72,-0.453332 5.32666,-0.906664 0.22666,-3.853322 0.45333,-7.026646 0.22666,-3.286657 0.45333,-5.553317 0.68,-2.153327 1.24666,-3.286657 0.68,-1.13333 1.7,-1.473329 1.01999,-0.453332 2.49332,-0.339999 1.58667,0 4.07999,0.226666 2.60666,0.226666 3.62666,1.586662 1.13333,1.246663 1.24666,2.833325 0,3.626656 -0.11333,6.346648 0,2.606659 0,5.099985 l 3.51332,-0.339999 q 5.32665,-0.453332 8.04664,1.13333 2.72,1.586662 3.17333,3.853322 0.56666,2.153327 -1.02,4.306654 -1.58666,2.153327 -4.98665,2.719992 l -9.29331,1.359996 z"
       id="text20"
       transform="rotate(0.47985983)"
       aria-label="SaveEat" />
    <path
       d="m 135.39196,120.3418 q 0.8,-0.53334 1.92,0 1.12,0.48 1.76,1.65333 0.96,1.92 0.96,5.44 0.0533,3.46666 -0.64,6.77332 -0.64,3.30667 -1.92,5.76 -1.28,2.45333 -2.66667,2.45333 -0.74666,0 -1.06666,-1.22666 -0.26667,-1.22667 0.10667,-2.98667 0.37333,-1.86666 0.58666,-4.21333 0,-0.0533 0,-0.10667 0.0533,-0.79999 -0.32,-0.85333 -0.32,-0.0533 -2.56,0.26667 -0.26666,0.0533 -0.42666,0.10666 -2.45333,0.37334 -3.25333,0.32 -0.74667,-0.0533 -1.33334,-0.63999 l -0.37333,-0.42667 -0.42667,0.64 q -0.42666,0.64 -0.85333,1.81333 -0.42667,1.12 -0.58667,1.22667 -0.48,0.58666 0.58667,1.06666 1.44,0.58667 -0.21333,1.44 -0.48,0.26667 -1.12,0.48 -0.90667,0.32 -3.78667,0.74667 -0.26666,0.0533 -0.90666,0.16 -0.58667,0.0533 -0.74667,0.10666 -1.86666,0.32 -2.88,-0.32 -1.01333,-0.69333 -1.70666,-2.61333 -1.06667,-2.98666 -1.01334,-6.23999 0.0533,-3.25334 1.22667,-4.8 0.8,-1.06667 1.28,-1.22667 0.53333,-0.21333 2.50667,-0.26666 1.70666,0 2.29333,0.10666 0.58666,0.0533 1.97333,0.48 1.70666,0.53334 2.88,1.6 1.22666,1.06667 1.49333,2.34667 0.16,0.85333 0.32,0.96 0.16,0.10666 0.8,-0.16 1.44,-0.58667 4.90666,-0.58667 2.34667,0 2.50667,-0.16 0.16,-0.16 0.16,-2.4 0.0533,-2.24 -0.10667,-3.09333 -0.32,-1.92 -0.21333,-2.56 0.10666,-0.64 0.85333,-1.06666 z m -15.19999,8.47999 q -1.28,-0.32 -1.97333,0 -0.48,0.26667 -0.74667,1.97333 -0.26666,1.70667 -0.16,3.52 0.10667,1.76 0.32,2.02667 0.21333,0.21333 1.81333,0.32 1.17334,0.0533 1.38667,-0.21334 0.21333,-0.26666 0.42667,-1.97333 0.10666,-1.17333 0.26666,-2.18666 0.32,-1.76 0.0533,-2.45334 -0.26667,-0.69333 -1.38667,-1.01333 z m 5.92,13.86666 q 1.38666,-0.21333 5.06666,-0.0533 3.68,0.10666 4.48,0.37333 1.33333,0.48 1.70666,1.01333 0.42667,0.53333 0.42667,1.81333 0,1.86667 -1.12,5.81333 -1.12,3.94667 -1.86667,4.8 -1.17333,1.28 -1.97333,0 -0.8,-1.28 -0.21333,-3.68 0.32,-1.33333 0.85333,-4.05333 0.21334,-0.90666 0.32,-1.49333 0.21334,-1.01333 -0.16,-1.12 -0.37333,-0.10667 -2.93333,0.16 -3.94666,0.42667 -5.44,0.10667 -1.49333,-0.32 -1.49333,-1.65334 0,-0.95999 0.48,-1.38666 0.53333,-0.48 1.86667,-0.64 z m 28.53329,-16.90666 q 6.02666,-1.12 8.47999,3.30667 1.49333,2.66666 0.48,7.25333 -0.85333,3.73333 -2.45333,4.31999 -0.64,0.26667 -1.28,-0.26666 -0.32,-0.26667 -0.37333,-0.69334 -0.0533,-0.48 -0.10667,-3.03999 -0.10667,-4.32 -0.53333,-5.38667 -0.37334,-0.8 -1.65334,-1.17333 -1.22666,-0.42667 -2.82666,-0.21333 -1.97333,0.26666 -2.82667,0.0533 -0.85333,-0.26667 -0.85333,-1.12 0,-1.12 1.01333,-1.92 1.01334,-0.8 2.93334,-1.12 z m -2.08,11.14666 q 0.74666,-0.37333 1.65333,0 0.90667,0.32 1.33333,1.12 0.26667,0.48 0.32,2.66667 0.0533,2.13333 -0.16,4.05333 -0.16,1.17333 -0.0533,1.33333 0.16,0.10667 2.45333,0.10667 2.34667,-0.0533 4.58666,-0.26667 3.68,-0.32 4.64,-0.0533 1.01333,0.21333 1.01333,1.38666 0,2.08 -7.99999,3.2 -0.90667,0.10667 -1.81333,0.26667 -5.70667,1.12 -10.29333,-0.53334 -3.2,-1.11999 -3.09333,-2.82666 0.0533,-0.58667 0.58666,-1.17333 0.32,-0.42667 1.17334,-0.42667 0.85333,-0.0533 3.46666,0.26667 1.17333,0.16 1.28,0 0.16,-0.16 -0.0533,-1.38667 -0.53334,-3.14666 -0.32,-5.22666 0.26666,-2.08 1.28,-2.50667 z m 60.05328,-11.94666 q 1.33334,-0.69333 2.56,0.64 1.28,1.33334 1.92,4 0.64,2.61333 0.37333,5.38666 -0.16,1.44 -0.16,2.34667 0,0.85333 -0.16,1.76 -0.0533,0.26666 -0.21333,1.28 -0.16,0.96 -0.21333,1.38666 -0.8,5.17333 -1.49333,7.30667 -0.69334,2.07999 -1.76,2.61333 -1.33334,0.69333 -2.08,-0.37334 -0.74667,-1.06666 -0.58667,-3.35999 0.32,-3.36 0.42667,-7.36 v -0.64 h -4.26667 q -0.0533,0 -0.16,0 -3.57333,0 -4.21333,-0.10667 -0.64,-0.16 -0.90666,-1.06666 0,0 0,-0.0533 -0.26667,-0.90667 -0.21334,-1.28 0.10667,-0.42667 0.69334,-0.8 0.8,-0.48 2.87999,-0.69334 2.08,-0.21333 4.21334,0 1.49333,0.16 1.86666,0.16 0.42667,-0.0533 0.53333,-0.37333 0.16,-0.37333 0.16,-3.68 0.0533,-3.36 -0.10666,-4.26666 -0.21334,-1.22667 -0.0533,-1.81333 0.21334,-0.58667 0.96,-1.01334 z m -23.46665,5.12 q 1.86667,-0.64 4.42667,0.58667 2.55999,1.22666 3.57333,3.25333 0.37333,0.8 0.42666,2.34666 0.0533,1.49334 -0.26666,2.61334 -0.26667,0.85333 -0.10667,1.11999 0.10667,0.26667 1.28,1.44 1.22666,1.12 1.76,1.54667 0.58666,0.37333 1.44,1.22667 0.85333,0.79999 1.44,1.11999 1.28,0.64 -0.21334,1.76 -0.64,0.53334 -1.38666,0.10667 -0.42667,-0.21333 -1.17334,-0.32 -1.54666,-0.16 -4.42666,-2.18667 -1.54667,-1.11999 -1.54667,-0.63999 0,0.32 -2.18666,2.13333 -2.13333,1.81333 -3.09333,2.29333 -0.90667,0.42667 -1.49333,0.26667 -0.58667,-0.16 -0.58667,-0.96 0,-0.53334 0.42667,-1.28 0.42666,-0.8 2.02666,-3.2 1.49333,-2.18667 2.56,-4.21333 1.12,-2.08 1.17333,-2.82667 0.10667,-0.74666 -0.96,-1.54666 -1.06666,-0.8 -2.61333,-1.06667 -1.6,-0.32 -1.86666,-1.12 -0.21334,-0.69333 0.21333,-1.44 0.42666,-0.8 1.17333,-1.01333 z m 58.39996,-5.49333 q 0.42666,0.96 0.53333,1.65333 0.16,0.69334 0.21333,2.56 0.10667,1.81333 0.26667,2.18667 0.16,0.32 0.85333,0.32 1.17334,0 3.25333,0.74666 1.49334,0.58667 2.08,1.44 0.58667,0.85333 -0.0533,1.49333 -0.37333,0.32 -0.90667,0.32 -0.48,-0.0533 -2.02666,-0.37333 -2.24,-0.53333 -3.09333,-0.42667 -0.85334,0.10667 -0.85334,0.96 0,0.69334 -0.48,2.50667 -0.42666,1.76 -0.8,2.56 -0.79999,1.6 -1.81333,1.86666 -1.01333,0.21334 -1.65333,-1.06666 -0.26667,-0.53334 -0.32,-2.4 0,-1.92 0.10667,-8.85333 0.0533,-3.25333 -0.0533,-3.84 -0.10666,-0.64 -0.74666,-1.54666 -0.69334,-0.96 -0.32,-1.86667 0.37333,-0.90666 1.54666,-1.22666 1.17334,-0.32 2.29334,0.48 1.17333,0.79999 1.97333,2.50666 z m -23.94666,2.08 q 1.01334,-0.58667 3.41334,-0.0533 2.39999,0.48 3.62666,1.59999 1.33333,1.17334 1.65333,2.61334 0.37334,1.38666 -0.21333,3.46666 -0.10667,0.58667 0.21333,1.12 0.69334,0.96 2.45333,2.4 1.81334,1.44 2.88,1.86666 1.01334,0.37334 1.12,1.06667 0.10667,0.69333 -0.8,1.22667 -0.8,0.48 -2.82666,-0.0533 -1.97333,-0.58666 -3.73333,-1.81333 -1.44,-1.01333 -1.70667,-1.06667 -0.21333,-0.0533 -0.69333,0.53334 -2.08,2.50666 -4,3.36 -0.48,0.21333 -0.64,0.32 -0.48,0.21333 -1.01333,0 -0.48,-0.26667 -0.64,-0.8 -0.26667,-0.85334 0.32,-2.13334 0.64,-1.28 3.04,-4.69333 2.18666,-3.14666 2.18666,-4.05333 0,-0.58666 -1.12,-1.17333 -1.06666,-0.64 -2.13333,-0.64 -1.6,0 -2.13333,-1.12 -0.53333,-1.17333 0.74666,-1.97333 z m 16.85333,19.19999 q 0.58666,-0.21334 0.96,-0.16 0.37333,0.0533 1.6,0.53333 1.81333,0.74667 2.61333,2.08 0.8,1.33333 0.58666,2.66666 -0.21333,1.33334 -1.43999,2.56 -1.22667,1.22667 -3.2,1.70667 -2.29333,0.58666 -3.89333,-0.96 -1.54667,-1.6 -1.12,-4.16 0.21333,-1.38666 1.28,-2.50666 1.06666,-1.17334 2.61333,-1.76 z m 1.49333,3.89333 q -0.58667,-0.37333 -0.90667,-0.26667 -0.26666,0.0533 -0.53333,0.64 -0.26666,0.74667 -0.10667,1.12 0.21334,0.37333 0.8,0.32 1.12,-0.0533 1.33334,-0.64 0.26666,-0.64 -0.58667,-1.17333 z m 38.40003,-24.10665 q 0.90666,-0.32 1.92,0.42666 1.06666,0.69334 1.81333,2.24 0.8,1.65333 1.01333,3.2 0.26667,1.54667 0.21333,4.37333 0,0.16 -0.0533,0.53333 -0.0533,1.86667 0.10667,2.24 0.16,0.32 1.12,0.37333 0.16,0.0533 0.26666,0.0533 3.68,0.32 5.28,0.90666 1.65333,0.58667 1.65333,1.54667 0,0.32 -1.22666,0.69333 -1.22667,0.32 -1.97334,0.21334 -0.53333,-0.10667 -3.09333,0 l -2.61333,0.10666 -0.0533,0.64 q -0.64,4.64 -1.81334,6.61333 -1.11999,1.92 -2.71999,1.12 -0.69334,-0.37333 -0.85334,-2.72 -0.16,-2.4 0.16,-7.62666 0.26667,-3.68 0.21334,-7.2 -0.0533,-3.51999 -0.32,-4.69333 -0.64,-2.39999 0.96,-3.03999 z m -18.29333,1.6 q 0.48,-0.10667 1.49334,-0.0533 1.06666,0 2.23999,0.58667 1.17334,0.58666 2.02667,1.38666 0.85333,0.8 1.49333,1.76 0.64,0.96 0.64,1.81334 0.0533,0.79999 -0.48,1.38666 -1.38666,1.28 -2.34666,-0.64 -0.37334,-0.74666 -1.54667,-1.38666 -1.17333,-0.64 -2.61333,-0.85334 -2.50667,-0.37333 -2.50667,-1.97333 0,-0.53333 0.48,-1.17333 0.53334,-0.64 1.12,-0.85333 z m -3.19999,9.27999 q 1.06666,-0.16 5.17333,0.0533 4.10666,0.16 5.54666,0.42667 1.92,0.32 2.88,0.96 0.96,0.64 0.64,1.44 -0.10667,0.37333 -0.64,0.48 -0.48,0.0533 -2.93333,0.0533 -3.04,0 -4.96,0.26667 -3.04,0.37333 -4.90666,-0.10667 -1.86667,-0.48 -1.97334,-1.76 -0.0533,-0.74666 0.26667,-1.22666 0.32,-0.53334 0.90667,-0.58667 z m 5.43999,5.33333 q 0.96,-0.32 3.04,0.10667 2.13333,0.37333 2.82667,1.01333 1.75999,1.6 0.53333,4 -1.22667,2.34666 -4.42667,3.62666 -1.86666,0.74667 -3.78666,-0.10667 -1.86667,-0.85333 -1.86667,-2.45333 0,-1.44 1.28,-3.62666 1.33334,-2.18667 2.4,-2.56 z m 2.18667,3.73333 q -0.58667,-0.26667 -0.96,-0.10667 -0.32,0.10667 -0.64,0.74667 -0.32,0.64 -0.26667,0.90667 0.10667,0.26666 0.64,0.21333 1.33333,-0.16 1.65333,-1.01333 0.16,-0.48 -0.42666,-0.74667 z m 51.73333,-19.94665 q 0.90666,-0.42667 2.29333,0.48 1.44,0.85333 2.08,2.29333 0.69333,1.49333 0.85333,2.50666 0.21334,0.96 0.32,3.78667 0,0.37333 0,1.01333 0.0533,2.13333 0.26667,2.50667 0.21333,0.37333 1.54666,0.53333 0.37334,0 0.58667,0.0533 3.36,0.42667 4.69333,0.96 1.33333,0.53333 1.33333,1.33333 0,0.74667 -1.06666,0.96 -1.01334,0.21334 -4.32,0.16 l -3.57333,-0.0533 -0.0533,0.64 q -0.53334,3.94666 -1.22667,5.76 -0.64,1.81333 -1.70667,2.29333 -1.22666,0.53333 -2.13333,-0.21334 -0.42666,-0.32 -0.58666,-3.51999 -0.16,-3.25333 0.10666,-5.81333 1.01333,-9.86666 -0.26666,-13.12 -0.69334,-1.75999 0.85333,-2.55999 z m -20.69332,6.18666 q 0.8,-0.48 2.82666,-0.16 2.08,0.26667 3.73333,1.06667 3.78667,2.02666 2.56,6.61332 0,0.10667 -0.0533,0.32 -0.32,1.06667 0,1.49334 0.32,0.37333 2.50666,1.70666 0.42667,0.26667 0.64,0.37334 2.61334,1.59999 3.36,1.86666 0.96,0.32 0.90667,1.17333 -0.0533,0.8 -1.01334,1.06667 -0.47999,0.16 -2.07999,-0.16 -1.6,-0.32 -2.77334,-0.8 -0.10666,0 -0.26666,-0.0533 -0.16,-0.10667 -0.42667,-0.16 -0.26666,-0.10667 -0.42666,-0.21334 -0.85334,-0.32 -1.65334,-0.74666 -1.17333,-0.64 -1.38666,-0.64 -0.16,0 -0.74667,0.53333 -4.48,4.32 -6.24,3.94667 -0.69333,-0.10667 -0.64,-1.06667 0.0533,-0.74667 1.44,-3.14667 1.44,-2.45333 2.66667,-3.83999 0.42667,-0.42667 1.22667,-2.02667 0.79999,-1.6 0.79999,-1.92 0,-0.58666 -0.85333,-1.06666 -0.85333,-0.48 -2.88,-1.01334 -1.70666,-0.48 -2.08,-1.44 -0.37333,-0.95999 0.85334,-1.70666 z m 39.51998,-9.49333 q 0.53334,-0.16 1.44,0 0.90667,0.10667 1.38667,0.53333 0.85333,0.58667 1.06666,3.41334 0.26667,2.82666 -0.21333,5.59999 -0.16,0.85334 -0.26667,2.18667 -0.10666,1.54666 -0.26666,2.66666 -0.21334,1.38667 -0.21334,2.82667 0,1.33333 -0.16,1.76 -0.16,0.42666 -0.79999,0.74666 -1.22667,0.64 -2.13334,-0.0533 -0.85333,-0.74667 -1.12,-2.61333 -0.21333,-1.49333 -0.32,-2.08 -0.16,-0.74667 -0.16,-2.29333 0,-1.6 -0.21333,-2.45333 -0.21333,-0.74667 -0.21333,-3.25334 0,-3.19999 0.48,-4.79999 0.53333,-1.65334 1.70666,-2.18667 z m -0.0533,27.78665 q 0.74667,-0.32 1.81333,0.0533 1.12,0.32 1.54667,0.96 0.26666,0.53334 0.21333,1.38667 -0.0533,0.8 -0.37333,1.12 -1.06667,0.96 -2.34667,0.69333 -1.28,-0.26666 -1.70666,-1.54666 -0.21334,-0.74667 0.0533,-1.54667 0.26667,-0.85333 0.8,-1.12 z"
       id="text21"
       style="-inkscape-font-specification:iceSotong;stroke-width:7.55906;stroke-linecap:round;stroke-linejoin:round;paint-order:fill markers stroke"
       aria-label="먹고 저장하자!" />
  </g>
</svg>
