<?xml version="1.0" encoding="UTF-8" standalone="no"?>
<!-- Created with Inkscape (http://www.inkscape.org/) -->

<svg
   width="100mm"
   height="25mm"
   viewBox="0 0 377.95276 94.48819"
   version="1.1"
   id="svg1"
   inkscape:version="1.3 (0e150ed6c4, 2023-07-21)"
   sodipodi:docname="Logo_OnlyText_SignatureColor.svg"
   xmlns:inkscape="http://www.inkscape.org/namespaces/inkscape"
   xmlns:sodipodi="http://sodipodi.sourceforge.net/DTD/sodipodi-0.dtd"
   xmlns="http://www.w3.org/2000/svg"
   xmlns:svg="http://www.w3.org/2000/svg">
  <sodipodi:namedview
     id="namedview1"
     pagecolor="#ffffff"
     bordercolor="#000000"
     borderopacity="0.25"
     inkscape:showpageshadow="2"
     inkscape:pageopacity="0.0"
     inkscape:pagecheckerboard="0"
     inkscape:deskcolor="#d1d1d1"
     inkscape:document-units="mm"
     showguides="true"
     inkscape:zoom="2.114039"
     inkscape:cx="179.51419"
     inkscape:cy="89.638838"
     inkscape:window-width="1920"
     inkscape:window-height="1017"
     inkscape:window-x="-8"
     inkscape:window-y="-8"
     inkscape:window-maximized="1"
     inkscape:current-layer="layer1" />
  <defs
     id="defs1" />
  <g
     inkscape:label="Layer 1"
     inkscape:groupmode="layer"
     id="layer1">
    <path
       style="-inkscape-font-specification:'Room No.703';fill:#ff6347;stroke-width:7.55906;stroke-linecap:round;stroke-linejoin:round;paint-order:fill markers stroke"
       d="m 31.299328,87.695861 q -5.439984,0 -10.426636,-1.13333 -4.986652,-1.019997 -8.839974,-3.739989 -3.7399887,-2.606659 -6.1199817,-7.026646 -2.26666,-4.419987 -2.379993,-11.106634 -0.113333,-2.833325 1.473329,-4.193321 1.699995,-1.473329 3.853322,-1.473329 2.1533267,-0.113333 4.0799877,1.13333 1.926661,1.13333 2.493326,3.39999 1.246663,3.966655 3.739989,6.233315 2.493326,2.26666 5.439984,3.173324 2.946658,0.793331 6.006649,0.453332 3.173324,-0.339999 5.779983,-1.586662 2.606659,-1.359996 4.193321,-3.39999 1.586662,-2.153327 1.586662,-4.759986 0,-3.966655 -1.473329,-5.779983 Q 39.232638,55.962621 36.625979,55.055957 34.01932,54.03596 30.392664,53.355962 26.879341,52.562631 22.68602,50.862636 19.28603,49.729306 16.226039,47.802645 13.279381,45.762651 11.239387,42.70266 9.3127263,39.529336 8.7460613,34.882683 q -0.453332,-4.646653 1.13333,-11.3333 1.1333297,-4.53332 3.7399887,-7.593311 2.719992,-3.173324 6.459981,-4.986652 3.739989,-1.9266614 8.046643,-2.7199924 4.419987,-0.793331 8.839974,-0.679998 4.53332,0 8.726641,0.793331 4.306654,0.793331 7.706644,2.0399944 2.606659,1.019997 3.286657,3.286657 0.793331,2.26666 0.113333,4.53332 -0.566665,2.26666 -2.379993,3.966655 -1.813328,1.586662 -4.193321,1.246663 -3.739989,-0.453332 -7.706644,-0.793331 -3.853322,-0.339999 -7.139979,0.226666 -3.286657,0.453332 -5.439984,2.379993 -2.153327,1.813328 -2.26666,5.66665 -0.113333,2.946658 1.13333,4.759986 1.359996,1.813328 3.626656,3.059991 2.26666,1.13333 5.099985,2.039994 2.946658,0.793331 5.893316,1.813328 3.059991,1.019997 5.893316,2.606659 2.833325,1.473329 4.986652,3.966655 2.153327,2.493326 3.286657,6.346648 1.13333,3.739989 0.793331,9.293306 -0.339999,5.779983 -2.946658,10.086637 -2.493326,4.193321 -6.346648,7.026646 -3.739989,2.946658 -8.499975,4.306654 -4.646653,1.473329 -9.293306,1.473329 z m 85.906512,-54.39984 q -2.04,5.099985 -2.83333,10.539969 -0.79333,5.326651 -1.36,10.766635 -0.56666,6.119982 -0.67999,12.126631 0,5.893316 0.90666,11.899965 0.45333,3.286657 -0.79333,4.079988 -1.13333,0.793331 -4.07999,0.226666 -6.00665,-1.473329 -8.04664,-4.986652 -2.039995,-3.626656 -2.266661,-10.426636 -1.813328,3.173324 -4.193321,6.686647 -2.379993,3.513323 -5.213318,6.459981 -2.379993,2.606659 -6.346648,2.946658 -3.966655,0.339999 -7.819977,-1.359996 -3.739989,-1.586662 -6.686647,-4.873319 -2.833325,-3.39999 -2.946658,-8.046643 -0.453332,-5.439984 0.226666,-10.766635 0.679998,-5.439984 2.493326,-10.19997 1.926661,-4.759986 4.986652,-8.613308 3.173324,-3.853322 7.479978,-6.346648 2.493326,-1.359996 6.006649,-1.586662 3.626656,-0.339999 7.026646,0.453332 3.513323,0.793331 6.119982,2.493326 2.719991,1.586662 3.513321,3.966655 1.02,-2.153327 2.15333,-4.306654 1.24666,-2.26666 2.71999,-3.853322 0.79333,-0.906664 2.15333,-1.246663 1.35999,-0.453332 2.83332,-0.226666 1.47333,0.113333 2.71999,0.793331 1.24667,0.566665 1.92667,1.586662 0.22666,0.453332 0.11333,0.906664 0,0.453332 -0.11333,0.906664 z M 94.652569,55.395956 q 0.113333,-0.226666 0.113333,-0.906664 -0.566665,-6.913313 -1.699995,-9.633305 -1.13333,-2.719992 -2.606659,-2.493326 -1.473329,0.226666 -3.059991,2.833325 -1.473329,2.606659 -2.833325,6.233315 -1.359996,3.626656 -2.379993,7.819977 -1.019997,4.079988 -1.473329,7.366645 -0.339999,3.286657 0.113333,5.213318 0.453332,1.926661 2.039994,1.13333 1.586662,-0.793331 4.419987,-4.873319 2.946658,-4.079988 7.366645,-12.693296 z m 49.866421,13.033295 q 1.92666,-5.893316 3.28666,-9.746638 1.35999,-3.853322 2.49332,-6.79998 1.13333,-3.059991 2.04,-5.893316 1.01999,-2.946658 2.26666,-7.026646 1.58666,-4.873319 4.30665,-6.573314 2.83333,-1.813328 5.32665,-1.246663 2.60666,0.453332 4.07999,2.946658 1.58666,2.379993 0.56667,5.893316 -1.24667,4.079988 -2.72,9.06664 -1.35999,4.873319 -3.05999,9.973304 -1.69999,4.986652 -3.62665,9.746638 -1.92666,4.646653 -4.19332,8.386642 -2.26666,3.626656 -4.87332,5.893316 -2.49333,2.26666 -5.43999,2.26666 -4.53332,0.113333 -7.93331,-3.286657 -3.39999,-3.39999 -6.00665,-9.406639 -2.60666,-6.006649 -4.75998,-14.166625 -2.15333,-8.273309 -4.19332,-17.793281 -0.79333,-3.966655 0.90666,-6.346648 1.7,-2.493326 4.19332,-3.059991 2.60666,-0.679998 5.09999,0.679998 2.60666,1.359996 3.62665,4.873319 1.13333,3.853322 1.81333,6.79998 0.68,2.946658 1.47333,6.233315 0.90666,3.286657 2.03999,7.706644 1.24667,4.306654 3.28666,10.879968 z m 46.46647,-5.66665 q -1.47333,-0.226666 -1.7,-0.113333 -0.11333,0 -0.22666,1.019997 -0.56667,4.53332 0.79333,7.253312 1.35999,2.606659 3.96665,3.513323 2.72,0.793331 6.23332,-0.113333 3.51332,-0.906664 7.36664,-3.626656 1.81333,-1.246663 4.07999,-1.246663 2.26666,-0.113333 3.85332,0.793331 1.7,0.793331 2.26666,2.493326 0.56667,1.699995 -0.90666,3.966655 -3.28666,4.759986 -7.59331,6.573314 -4.30666,1.926661 -10.08664,2.039994 -5.77998,0.113333 -10.6533,-1.359996 -4.87332,-1.359996 -8.49998,-4.306654 -3.51332,-2.833325 -5.55331,-7.026646 -1.92666,-4.193321 -1.92666,-9.519972 0.11333,-5.099985 0.79333,-9.406639 0.79333,-4.306654 2.49332,-7.93331 1.7,-3.739989 4.41999,-6.913313 2.83333,-3.173324 6.91331,-6.119982 4.75999,-3.286657 10.76664,-3.739989 6.11998,-0.453332 11.3333,1.586662 5.32665,2.039994 8.49997,6.573314 3.17333,4.419987 2.15333,10.993301 -0.79333,4.646653 -3.62666,7.819977 -2.83332,3.173324 -6.79998,4.986652 -3.96665,1.813328 -8.83997,2.26666 -4.75999,0.453332 -9.51997,-0.453332 z m 9.17997,-21.873269 q -3.62665,2.606659 -5.43998,6.006649 -1.7,3.286657 -3.51333,7.819977 3.17333,0 5.89332,-0.453332 2.71999,-0.453332 4.87332,-1.586662 2.15333,-1.246663 3.51332,-3.286657 1.47333,-2.153327 1.92666,-5.439984 0.11334,-1.586662 -0.56666,-2.606659 -0.68,-1.019997 -1.81333,-1.359996 -1.13333,-0.453332 -2.49333,-0.113333 -1.24666,0.226666 -2.37999,1.019997 z M 262.952,7.6827626 q 3.39999,-0.339999 4.98665,0.566665 1.58666,0.906664 2.03999,2.1533274 0.56667,1.246663 0.34,2.379993 -0.11333,1.019997 -0.11333,0.906664 0,-0.113333 -0.11334,1.13333 -0.11333,1.13333 -0.79333,2.719992 -0.67999,1.473329 -2.15332,2.833325 -1.36,1.359996 -4.07999,1.699995 -3.51332,0.566665 -5.43999,0.679998 -1.92666,0.113333 -3.39999,0.226666 -1.47332,0.113333 -3.17332,0.339999 -1.69999,0.113333 -4.75999,0.679998 -1.69999,0.226666 -2.37999,1.699995 -0.56666,1.359996 -0.68,2.833325 -0.22666,1.926661 -0.34,3.059991 0,1.13333 -0.11333,2.039994 0,0.906664 -0.11333,1.813328 0,0.793331 -0.11333,2.153327 -0.22667,1.586662 0,2.379993 0.22666,0.679998 2.15332,0.566665 3.96666,-0.453332 6.34665,-0.679998 2.49333,-0.226666 4.64665,-0.339999 2.26666,-0.113333 4.75999,-0.339999 2.49333,-0.226666 6.45998,-0.679998 1.36,-0.113333 2.15333,0.566665 0.79333,0.679998 1.24666,1.699995 0.45333,1.019997 0.56667,2.039994 0.22666,0.906664 0.22666,1.246663 0,0.453332 0.11333,1.586662 0.11334,1.13333 -0.33999,2.493326 -0.45334,1.246663 -1.58667,2.379993 -1.13333,1.13333 -3.51332,1.586662 -3.96665,0.679998 -6.34665,1.019997 -2.26666,0.226666 -4.30665,0.453332 -1.92666,0.113333 -4.19332,0.453332 -2.15333,0.226666 -5.89332,0.906664 -1.92666,0.339999 -2.71999,1.246663 -0.68,0.906664 -0.90666,2.833325 -0.22667,2.039994 -0.34,2.606659 -0.11334,0.566665 -0.22667,1.019997 0,0.339999 -0.11333,1.13333 0,0.793331 -0.11334,3.059991 0,2.039994 0.79334,2.26666 0.90666,0.226666 2.60665,0.113333 4.41999,-0.113333 9.29331,-0.339999 4.87332,-0.339999 12.23996,-1.246663 2.72,-0.339999 3.85333,1.246663 1.24666,1.473329 1.47333,3.513323 0.22666,1.926661 0,3.739989 -0.22667,1.699995 -0.34,2.039994 -1.24667,2.26666 -3.96666,2.719992 -2.60666,0.453332 -5.21332,0.906664 -4.19332,0.679998 -7.36664,1.019997 -3.05999,0.453332 -5.89332,0.566665 -2.83332,0.226666 -5.77998,0.339999 -2.94666,0.113333 -6.79998,0.226666 -5.09999,0.113333 -8.04664,-1.813328 -2.94666,-1.926661 -2.83333,-6.573314 0.11333,-6.79998 0.34,-14.053292 0.34,-7.253312 0.68,-14.506624 0.45333,-7.366645 0.90666,-14.506624 0.45333,-7.253312 1.02,-13.939959 0.34,-2.606659 1.58666,-4.193321 1.24666,-1.586662 2.94666,-2.493326 1.81333,-0.906664 3.85332,-1.359996 2.04,-0.453332 3.96666,-0.7933314 z m 64.03297,25.6132584 q -2.03999,5.099985 -2.83332,10.539969 -0.79333,5.326651 -1.36,10.766635 -0.56666,6.119982 -0.68,12.126631 0,5.893316 0.90667,11.899965 0.45333,3.286657 -0.79333,4.079988 -1.13333,0.793331 -4.07999,0.226666 -6.00665,-1.473329 -8.04664,-4.986652 -2.04,-3.626656 -2.26666,-10.426636 -1.81333,3.173324 -4.19333,6.686647 -2.37999,3.513323 -5.21331,6.459981 -2.38,2.606659 -6.34665,2.946658 -3.96666,0.339999 -7.81998,-1.359996 -3.73999,-1.586662 -6.68665,-4.873319 -2.83332,-3.39999 -2.94665,-8.046643 -0.45334,-5.439984 0.22666,-10.766635 0.68,-5.439984 2.49333,-10.19997 1.92666,-4.759986 4.98665,-8.613308 3.17332,-3.853322 7.47998,-6.346648 2.49332,-1.359996 6.00665,-1.586662 3.62665,-0.339999 7.02664,0.453332 3.51333,0.793331 6.11999,2.493326 2.71999,1.586662 3.51332,3.966655 1.02,-2.153327 2.15333,-4.306654 1.24666,-2.26666 2.71999,-3.853322 0.79333,-0.906664 2.15332,-1.246663 1.36,-0.453332 2.83333,-0.226666 1.47333,0.113333 2.71999,0.793331 1.24666,0.566665 1.92666,1.586662 0.22667,0.453332 0.11334,0.906664 0,0.453332 -0.11334,0.906664 z m -22.55326,22.099935 q 0.11333,-0.226666 0.11333,-0.906664 -0.56667,-6.913313 -1.7,-9.633305 -1.13333,-2.719992 -2.60666,-2.493326 -1.47332,0.226666 -3.05999,2.833325 -1.47333,2.606659 -2.83332,6.233315 -1.36,3.626656 -2.37999,7.819977 -1.02,4.079988 -1.47333,7.366645 -0.34,3.286657 0.11333,5.213318 0.45333,1.926661 2.03999,1.13333 1.58667,-0.793331 4.41999,-4.873319 2.94666,-4.079988 7.36665,-12.693296 z m 53.49303,19.26661 q -0.11333,1.586662 -0.34,3.173324 -0.11333,1.586662 -0.67999,2.946658 -0.56667,1.359996 -1.81333,2.26666 -1.24667,1.019997 -3.51333,1.246663 -2.26666,0 -3.85332,0 -1.47333,0 -2.49332,-0.339999 -1.02,-0.339999 -1.58667,-1.359996 -0.56666,-0.906664 -0.90666,-2.833325 -0.34,-5.099985 -0.22667,-9.519972 0.22667,-4.53332 0.45334,-9.746638 0,-3.739989 0.11333,-9.406639 0.22667,-5.66665 0.45333,-12.013298 -3.39999,0.226666 -7.13998,-0.113333 -3.62665,-0.339999 -6.91331,-2.153327 -1.58666,-0.566665 -2.15333,-1.926661 -0.45333,-1.359996 0,-2.719992 0.45333,-1.473329 1.81333,-2.833325 1.36,-1.359996 3.62666,-1.926661 3.28665,-0.679998 6.00665,-1.13333 2.71999,-0.453332 5.32665,-0.906664 0.22666,-3.853322 0.45333,-7.026646 0.22666,-3.286657 0.45333,-5.553317 0.68,-2.153327 1.24666,-3.2866574 0.68,-1.13333 1.7,-1.473329 1.02,-0.453332 2.49332,-0.339999 1.58667,0 4.07999,0.226666 2.60666,0.226666 3.62666,1.586662 1.13333,1.2466634 1.24666,2.8333254 0,3.626656 -0.11333,6.346648 0,2.606659 0,5.099985 l 3.51332,-0.339999 q 5.32665,-0.453332 8.04664,1.13333 2.72,1.586662 3.17333,3.853322 0.56666,2.153327 -1.02,4.306654 -1.58666,2.153327 -4.98665,2.719992 l -9.29331,1.359996 z"
       id="text20"
       transform="rotate(0.47985983)"
       aria-label="SaveEat" />
  </g>
</svg>
