<?xml version="1.0" encoding="UTF-8" standalone="no"?>
<!-- Created with Inkscape (http://www.inkscape.org/) -->

<svg
   width="100mm"
   height="100mm"
   viewBox="0 0 100 100"
   version="1.1"
   id="svg1"
   inkscape:version="1.3 (0e150ed6c4, 2023-07-21)"
   sodipodi:docname="SaveEat_NewLogo_TypeSqure.svg"
   xmlns:inkscape="http://www.inkscape.org/namespaces/inkscape"
   xmlns:sodipodi="http://sodipodi.sourceforge.net/DTD/sodipodi-0.dtd"
   xmlns="http://www.w3.org/2000/svg"
   xmlns:svg="http://www.w3.org/2000/svg">
  <sodipodi:namedview
     id="namedview1"
     pagecolor="#ffffff"
     bordercolor="#000000"
     borderopacity="0.25"
     inkscape:showpageshadow="2"
     inkscape:pageopacity="0.0"
     inkscape:pagecheckerboard="0"
     inkscape:deskcolor="#d1d1d1"
     inkscape:document-units="mm"
     showguides="true"
     inkscape:zoom="1.4142136"
     inkscape:cx="225.21351"
     inkscape:cy="233.69879"
     inkscape:window-width="1920"
     inkscape:window-height="1017"
     inkscape:window-x="-8"
     inkscape:window-y="-8"
     inkscape:window-maximized="1"
     inkscape:current-layer="layer1">
    <sodipodi:guide
       position="50,83.008343"
       orientation="1,0"
       id="guide2"
       inkscape:locked="false" />
    <sodipodi:guide
       position="0.91816895,50"
       orientation="0,-1"
       id="guide3"
       inkscape:locked="false" />
  </sodipodi:namedview>
  <defs
     id="defs1" />
  <g
     inkscape:label="Layer 1"
     inkscape:groupmode="layer"
     id="layer1">
    <g
       id="g1"
       transform="matrix(0.76795504,0,0,0.76795504,9.5854794,9.2223817)">
      <path
         d="m 26.354519,24.917769 v -10.49988 c 0,-0.49584 0.16771,-0.91144 0.50314,-1.24681 0.33541,-0.33556 0.75103,-0.50334 1.24685,-0.50334 0.49583,0 0.91145,0.16778 1.24685,0.50334 0.33543,0.33556 0.50314,0.75117 0.50314,1.24681 v 10.49988 h 1.74998 v -10.49988 c 0,-0.49584 0.16771,-0.91144 0.50314,-1.24681 0.33542,-0.33556 0.75104,-0.50334 1.24686,-0.50334 0.49583,0 0.91145,0.16778 1.24686,0.50334 0.33542,0.33556 0.50313,0.75117 0.50313,1.24681 v 10.49988 c 0,1.63333 -0.50312,3.06249 -1.50936,4.28745 -1.00623,1.22499 -2.25309,2.04165 -3.74058,2.44999 v 14.262315 c 0,0.49584 -0.16771,0.91146 -0.50312,1.24689 -0.33543,0.33555 -0.75106,0.50332 -1.24688,0.50332 -0.49582,0 -0.91144,-0.16777 -1.24685,-0.50332 -0.33542,-0.33556 -0.50314,-0.75119 -0.50314,-1.24689 V 31.655209 c -1.48748,-0.40831 -2.73434,-1.22496 -3.74058,-2.44999 -1.00623,-1.22495 -1.50934,-2.65412 -1.50934,-4.28745 v -10.49988 c 0,-0.49584 0.1677,-0.91144 0.50312,-1.24681 0.33542,-0.33556 0.75105,-0.50334 1.24686,-0.50334 0.49583,0 0.91145,0.16778 1.24686,0.50334 0.33543,0.33556 0.50314,0.75117 0.50314,1.24681 v 10.49988 z"
         id="path42"
         style="display:inline;stroke-width:0.0437495"
         sodipodi:nodetypes="cscsssccscssssscscssscssscssscc" />
      <path
         id="path43"
         style="stroke-width:0.0437495"
         d="m 77.293591,12.669769 c -1.60414,0 -3.15757,0.94788 -4.65964,2.84372 -1.502057,1.89582 -2.252727,3.86465 -2.252727,5.90627 v 10.49992 c 0,0.49565 0.16739,0.9111 0.50282,1.24665 0.33541,0.33554 0.75126,0.50371 1.24709,0.50371 h 3.499817 v 12.249375 c 0,0.49571 0.16784,0.91152 0.50327,1.24709 0.33541,0.33554 0.75081,0.50327 1.24664,0.50327 0.49582,0 0.91166,-0.16773 1.24709,-0.50327 0.33543,-0.33542 0.50282,-0.75126 0.50282,-1.24709 V 14.726249 c 0,-0.55418 -0.175,-1.03548 -0.52497,-1.44379 -0.35001,-0.40833 -0.78721,-0.61269 -1.31221,-0.61269 z" />
      <g
         id="g46"
         transform="matrix(0.75,0,0,0.75,-68.56957,-50.749477)">
        <path
           id="circle43"
           style="fill:#000000;fill-opacity:1;stroke:none;stroke-width:2.98346;stroke-linecap:round;stroke-linejoin:round;stroke-dasharray:none;stroke-opacity:1;paint-order:fill markers stroke"
           d="M 161.75022,87.889732 A 20,20 0 0 0 141.75,107.88995 a 20,20 0 0 0 20.00022,19.99949 20,20 0 0 0 19.99949,-19.99949 20,20 0 0 0 -19.99949,-20.000218 z m -0.15592,3.717788 c 1.09517,-0.0033 2.19042,0.09406 3.26469,0.306705 5.33451,0.937319 9.93676,4.834724 11.96953,9.821865 1.77987,4.1907 1.56126,9.23859 -0.49556,13.35666 -2.3411,4.98917 -7.395,8.36292 -12.85451,8.98448 -2.10712,0.25316 -4.47137,0.0249 -6.60184,-0.66392 -2.89676,-0.92697 -5.62214,-2.68774 -7.62589,-5.08881 -4.30037,-5.02796 -4.98049,-12.75142 -1.6726,-18.474017 2.66155,-4.632975 7.6141,-7.802676 12.92186,-8.207095 0.36409,-0.02308 0.72927,-0.03478 1.09432,-0.03587 z" />
        <path
           id="path45"
           style="fill:#000000;fill-opacity:1;stroke:none;stroke-width:2.98346;stroke-linecap:round;stroke-linejoin:round;stroke-dasharray:none;stroke-opacity:1;paint-order:fill markers stroke"
           d="m 161.10167,92.674765 c -4.33485,0.14312 -8.45512,2.359406 -11.17678,5.648783 -3.87293,4.544802 -4.3867,11.421942 -1.64625,16.657942 0.91704,1.81692 2.27172,3.40826 3.76975,4.62912 3.98182,3.29567 9.68336,4.43204 14.57763,2.68275 4.45948,-1.49951 8.17646,-5.13241 9.57226,-9.65205 0.93652,-2.7915 0.99903,-5.75973 0.27596,-8.64775 -1.5298,-6.027907 -7.09583,-10.8016 -13.32006,-11.25804 -0.68277,-0.0574 -1.3675,-0.08025 -2.05251,-0.06076 z m 0.49483,1.05846 c 3.9487,-0.11179 7.84255,1.617462 10.50775,4.511999 2.80315,2.928716 4.18589,7.103776 3.71925,11.127746 -0.42841,4.6759 -3.40801,8.97601 -7.59003,11.08821 -4.92644,2.66456 -11.3755,1.86147 -15.61705,-1.74872 -3.56423,-2.93482 -5.41928,-7.69942 -4.93216,-12.27405 0.48416,-6.640663 6.30891,-12.13257 12.87427,-12.673709 0.34578,-0.0242 0.69132,-0.03848 1.03797,-0.03148 z" />
      </g>
    </g>
    <path
       style="-inkscape-font-specification:'Room No.703';stroke-width:1.88259;stroke-linecap:round;stroke-linejoin:round;paint-order:fill markers stroke"
       d="m 11.383222,69.982134 q -1.354833,0 -2.5967642,-0.282257 Q 7.5445269,69.445846 6.5848531,68.768429 5.653405,68.119238 5.0606653,67.018436 4.4961513,65.917634 4.4679256,64.252317 q -0.028226,-0.705642 0.3669341,-1.044351 0.4233855,-0.366934 0.9596738,-0.366934 0.5362883,-0.02822 1.0161252,0.282257 0.4798369,0.282257 0.6209654,0.846771 0.3104827,0.9879 0.9314482,1.552414 0.6209654,0.564514 1.3548336,0.790319 0.7338681,0.19758 1.4959621,0.112903 0.79032,-0.08468 1.439511,-0.39516 0.649191,-0.338708 1.044351,-0.846771 0.395159,-0.536288 0.395159,-1.185479 0,-0.9879 -0.366934,-1.439511 Q 13.359021,62.078938 12.70983,61.853133 12.060639,61.599101 11.157417,61.429747 10.28242,61.232167 9.238069,60.808782 8.391298,60.526525 7.629204,60.046688 6.8953358,59.538625 6.3872732,58.776531 5.9074363,57.986212 5.7663078,56.828958 q -0.1129028,-1.157254 0.282257,-2.82257 0.282257,-1.129028 0.9314481,-1.891122 0.6774168,-0.79032 1.608865,-1.241931 0.9314481,-0.479837 2.0040251,-0.677417 1.100802,-0.197579 2.201604,-0.169354 1.129028,0 2.173379,0.19758 1.072577,0.19758 1.919348,0.508063 0.649191,0.254031 0.818545,0.818545 0.19758,0.564514 0.02823,1.129028 -0.141129,0.564514 -0.59274,0.9879 -0.451611,0.395159 -1.044351,0.310482 -0.931448,-0.112903 -1.919347,-0.19758 -0.959674,-0.08468 -1.77822,0.05645 -0.818545,0.112903 -1.354833,0.592739 -0.536289,0.451612 -0.564514,1.411286 -0.02823,0.733868 0.282257,1.185479 0.338708,0.451611 0.903222,0.762094 0.564514,0.282257 1.270157,0.508062 0.733868,0.19758 1.467736,0.451612 0.762094,0.254031 1.467737,0.649191 0.705642,0.366934 1.24193,0.987899 0.536289,0.620966 0.818546,1.580639 0.282257,0.931449 0.19758,2.314508 -0.08468,1.439511 -0.733869,2.512087 -0.620965,1.044351 -1.580639,1.749994 -0.931448,0.733868 -2.116927,1.072576 -1.157254,0.366934 -2.314508,0.366934 z M 32.778326,56.433798 q -0.508062,1.270157 -0.705642,2.62499 -0.19758,1.326608 -0.338709,2.681442 -0.141128,1.524188 -0.169354,3.02015 0,1.467736 0.225806,2.963698 0.112902,0.818546 -0.19758,1.016126 -0.282257,0.197579 -1.016126,0.05645 -1.495962,-0.366934 -2.004024,-1.241931 -0.508063,-0.903222 -0.564514,-2.596764 -0.451611,0.790319 -1.044351,1.665316 -0.59274,0.874997 -1.298382,1.608865 -0.59274,0.649191 -1.58064,0.733868 -0.987899,0.08468 -1.947573,-0.338708 -0.931448,-0.39516 -1.665316,-1.213705 -0.705643,-0.846771 -0.733868,-2.004025 -0.112903,-1.354834 0.05645,-2.681442 0.169354,-1.354833 0.620965,-2.540313 0.479837,-1.185479 1.241931,-2.145153 0.79032,-0.959674 1.862896,-1.580639 0.620966,-0.338708 1.495963,-0.39516 0.903222,-0.08468 1.749993,0.112903 0.874997,0.19758 1.524188,0.620965 0.677417,0.39516 0.874996,0.9879 0.254032,-0.536288 0.536289,-1.072577 0.310482,-0.564514 0.677417,-0.959674 0.197579,-0.225805 0.536288,-0.310482 0.338708,-0.112903 0.705642,-0.05645 0.366934,0.02823 0.677417,0.19758 0.310483,0.141129 0.479837,0.39516 0.05645,0.112903 0.02823,0.225806 0,0.112902 -0.02823,0.225805 z m -5.616914,5.504012 q 0.02823,-0.05645 0.02823,-0.225806 -0.141128,-1.721768 -0.423385,-2.399184 -0.282257,-0.677417 -0.649191,-0.620966 -0.366934,0.05645 -0.762094,0.705643 -0.366934,0.649191 -0.705643,1.552413 -0.338708,0.903223 -0.592739,1.947574 -0.254032,1.016125 -0.366934,1.83467 -0.08468,0.818545 0.02822,1.298382 0.112903,0.479837 0.508063,0.282257 0.39516,-0.19758 1.100802,-1.213705 0.733868,-1.016125 1.834671,-3.161278 z m 12.419284,3.245955 q 0.479836,-1.467736 0.818545,-2.42741 0.338708,-0.959674 0.620965,-1.693542 0.282257,-0.762094 0.508063,-1.467736 0.254031,-0.733869 0.564514,-1.749994 0.39516,-1.213705 1.072577,-1.63709 0.705642,-0.451612 1.326607,-0.310483 0.649192,0.112903 1.016126,0.733868 0.395159,0.59274 0.141128,1.467737 -0.310483,1.016125 -0.677417,2.258056 -0.338708,1.213705 -0.762094,2.483861 -0.423385,1.241931 -0.903222,2.42741 -0.479837,1.157254 -1.044351,2.088702 -0.564514,0.903223 -1.213705,1.467737 -0.620965,0.564514 -1.354834,0.564514 -1.129028,0.02823 -1.975799,-0.818546 -0.846771,-0.846771 -1.495962,-2.342733 -0.649191,-1.495962 -1.185479,-3.528212 -0.536288,-2.060476 -1.044351,-4.431435 -0.19758,-0.9879 0.225806,-1.580639 0.423385,-0.620966 1.04435,-0.762094 0.649192,-0.169355 1.270157,0.169354 0.649191,0.338708 0.903222,1.213705 0.282257,0.959674 0.451612,1.693542 0.169354,0.733868 0.366934,1.552413 0.225805,0.818546 0.508062,1.919348 0.310483,1.072577 0.818546,2.709667 z M 51.153217,63.77248 q -0.366935,-0.05645 -0.423386,-0.02822 -0.02823,0 -0.05645,0.254031 -0.141129,1.129028 0.19758,1.806445 0.338708,0.649191 0.987899,0.874996 0.677417,0.19758 1.552414,-0.02823 0.874996,-0.225806 1.83467,-0.903223 0.451611,-0.310482 1.016125,-0.310482 0.564514,-0.02823 0.959674,0.19758 0.423386,0.197579 0.564514,0.620965 0.141129,0.423385 -0.225805,0.987899 -0.818546,1.18548 -1.891122,1.637091 -1.072577,0.479837 -2.512088,0.508063 -1.43951,0.02823 -2.653216,-0.338709 -1.213705,-0.338708 -2.116927,-1.072576 -0.874997,-0.705643 -1.383059,-1.749994 -0.479837,-1.044351 -0.479837,-2.370959 0.02822,-1.270156 0.19758,-2.342733 0.197579,-1.072576 0.620965,-1.975799 0.423385,-0.931448 1.100802,-1.721767 0.705643,-0.79032 1.721768,-1.524188 1.185479,-0.818546 2.681442,-0.931448 1.524187,-0.112903 2.82257,0.395159 1.326608,0.508063 2.116927,1.637091 0.79032,1.100802 0.536288,2.737893 -0.197579,1.157254 -0.903222,1.947573 -0.705642,0.79032 -1.693542,1.241931 -0.9879,0.451611 -2.201605,0.564514 -1.185479,0.112903 -2.370958,-0.112903 z m 2.286281,-5.44756 q -0.903222,0.649191 -1.354833,1.495962 -0.423386,0.818546 -0.874997,1.947574 0.79032,0 1.467736,-0.112903 0.677417,-0.112903 1.213705,-0.39516 0.536289,-0.310483 0.874997,-0.818545 0.366934,-0.536289 0.479837,-1.354834 0.02823,-0.39516 -0.141128,-0.649191 -0.169355,-0.254031 -0.451612,-0.338708 -0.282257,-0.112903 -0.620965,-0.02823 -0.310483,0.05645 -0.59274,0.254031 z M 69.07656,50.05479 q 0.846771,-0.08468 1.24193,0.141128 0.39516,0.225806 0.508063,0.536289 0.141129,0.310482 0.08468,0.592739 -0.02823,0.254032 -0.02823,0.225806 0,-0.02823 -0.02823,0.282257 -0.02823,0.282257 -0.19758,0.677417 -0.169354,0.366934 -0.536288,0.705642 -0.338709,0.338709 -1.016126,0.423386 -0.874996,0.141128 -1.354833,0.169354 -0.479837,0.02823 -0.846771,0.05645 -0.366934,0.02823 -0.79032,0.08468 -0.423385,0.02822 -1.185479,0.169354 -0.423386,0.05645 -0.59274,0.423385 -0.141129,0.338709 -0.169354,0.705643 -0.05645,0.479837 -0.08468,0.762094 0,0.282257 -0.02823,0.508062 0,0.225806 -0.02823,0.451612 0,0.197579 -0.02822,0.536288 -0.05645,0.39516 0,0.59274 0.05645,0.169354 0.536288,0.141128 0.987899,-0.112903 1.580639,-0.169354 0.620966,-0.05645 1.157254,-0.08468 0.564514,-0.02823 1.185479,-0.08468 0.620966,-0.05645 1.608865,-0.169355 0.338709,-0.02822 0.536288,0.141129 0.19758,0.169354 0.310483,0.423385 0.112903,0.254032 0.141129,0.508063 0.05645,0.225806 0.05645,0.310483 0,0.112903 0.02823,0.39516 0.02823,0.282257 -0.08468,0.620965 -0.112903,0.310483 -0.39516,0.59274 -0.282257,0.282257 -0.874997,0.395159 -0.987899,0.169355 -1.580639,0.254032 -0.564514,0.05645 -1.072577,0.112903 -0.479837,0.02822 -1.044351,0.112902 -0.536288,0.05645 -1.467736,0.225806 -0.479837,0.08468 -0.677417,0.310483 -0.169354,0.225805 -0.225805,0.705642 -0.05645,0.508063 -0.08468,0.649191 -0.02822,0.141129 -0.05645,0.254032 0,0.08468 -0.02823,0.282257 0,0.19758 -0.02822,0.762094 0,0.508062 0.19758,0.564514 0.225805,0.05645 0.649191,0.02822 1.100802,-0.02822 2.314507,-0.08468 1.213705,-0.08468 3.048376,-0.310483 0.677417,-0.08468 0.959674,0.310483 0.310482,0.366934 0.366934,0.874997 0.05645,0.479837 0,0.931448 -0.05645,0.423385 -0.08468,0.508063 -0.310483,0.564514 -0.9879,0.677416 -0.649191,0.112903 -1.298382,0.225806 -1.044351,0.169354 -1.834671,0.254031 -0.762094,0.112903 -1.467736,0.141129 -0.705643,0.05645 -1.439511,0.08468 -0.733868,0.02823 -1.693542,0.05645 -1.270156,0.02823 -2.004025,-0.451611 -0.733868,-0.479837 -0.705642,-1.637091 0.02823,-1.693542 0.08468,-3.499986 0.08468,-1.806445 0.169354,-3.61289 0.112903,-1.834671 0.225806,-3.61289 0.112903,-1.806445 0.254031,-3.471761 0.08468,-0.649191 0.39516,-1.044351 0.310483,-0.39516 0.733868,-0.620965 0.451611,-0.225806 0.959674,-0.338709 0.508063,-0.112902 0.987899,-0.197579 z m 15.947476,6.379008 q -0.508062,1.270157 -0.705642,2.62499 -0.19758,1.326608 -0.338708,2.681442 -0.141129,1.524188 -0.169355,3.02015 0,1.467736 0.225806,2.963698 0.112903,0.818546 -0.19758,1.016126 -0.282257,0.197579 -1.016125,0.05645 -1.495962,-0.366934 -2.004025,-1.241931 -0.508062,-0.903222 -0.564514,-2.596764 -0.451611,0.790319 -1.044351,1.665316 -0.59274,0.874997 -1.298382,1.608865 -0.59274,0.649191 -1.580639,0.733868 -0.9879,0.08468 -1.947574,-0.338708 -0.931448,-0.39516 -1.665316,-1.213705 -0.705642,-0.846771 -0.733868,-2.004025 -0.112903,-1.354834 0.05645,-2.681442 0.169355,-1.354833 0.620966,-2.540313 0.479837,-1.185479 1.241931,-2.145153 0.790319,-0.959674 1.862896,-1.580639 0.620965,-0.338708 1.495962,-0.39516 0.903222,-0.08468 1.749993,0.112903 0.874997,0.19758 1.524188,0.620965 0.677417,0.39516 0.874997,0.9879 0.254031,-0.536288 0.536288,-1.072577 0.310483,-0.564514 0.677417,-0.959674 0.19758,-0.225805 0.536288,-0.310482 0.338709,-0.112903 0.705643,-0.05645 0.366934,0.02823 0.677417,0.19758 0.310482,0.141129 0.479836,0.39516 0.05645,0.112903 0.02823,0.225806 0,0.112902 -0.02823,0.225805 z m -5.616914,5.504012 q 0.02823,-0.05645 0.02823,-0.225806 -0.141129,-1.721768 -0.423386,-2.399184 -0.282257,-0.677417 -0.649191,-0.620966 -0.366934,0.05645 -0.762094,0.705643 -0.366934,0.649191 -0.705642,1.552413 -0.338709,0.903223 -0.59274,1.947574 -0.254031,1.016125 -0.366934,1.83467 -0.08468,0.818545 0.02823,1.298382 0.112902,0.479837 0.508062,0.282257 0.39516,-0.19758 1.100803,-1.213705 0.733868,-1.016125 1.83467,-3.161278 z m 13.322498,4.798369 q -0.02823,0.39516 -0.08468,0.790319 -0.02823,0.39516 -0.169355,0.733869 -0.141128,0.338708 -0.451611,0.564514 -0.310483,0.254031 -0.874997,0.310482 -0.564514,0 -0.959673,0 -0.366934,0 -0.620966,-0.08468 -0.254031,-0.08468 -0.39516,-0.338708 -0.141128,-0.225806 -0.225805,-0.705643 -0.08468,-1.270156 -0.05645,-2.370958 0.05645,-1.129028 0.112903,-2.427411 0,-0.931448 0.02823,-2.342733 0.05645,-1.411285 0.112903,-2.991924 -0.846771,0.05645 -1.778219,-0.02823 -0.903223,-0.08468 -1.721768,-0.536288 -0.39516,-0.141129 -0.536288,-0.479837 -0.112903,-0.338708 0,-0.677417 0.112902,-0.366934 0.451611,-0.705642 0.338708,-0.338709 0.903222,-0.479837 0.818546,-0.169354 1.495962,-0.282257 0.677417,-0.112903 1.326608,-0.225806 0.05645,-0.959674 0.112903,-1.749993 0.05645,-0.818546 0.112903,-1.38306 0.169354,-0.536288 0.310483,-0.818545 0.169354,-0.282257 0.423385,-0.366934 0.254031,-0.112903 0.620965,-0.08468 0.39516,0 1.016126,0.05645 0.649191,0.05645 0.903222,0.39516 0.282257,0.310483 0.310483,0.705643 0,0.903222 -0.02823,1.580639 0,0.649191 0,1.270156 l 0.874997,-0.08468 q 1.326608,-0.112903 2.004025,0.282257 0.677416,0.39516 0.790319,0.959674 0.141129,0.536288 -0.254031,1.072577 -0.39516,0.536288 -1.241931,0.677417 L 92.9272,57.308795 Z"
       id="text46"
       transform="rotate(0.50781831)"
       aria-label="SaveEat" />
    <path
       d="m 27.241829,74.776248 q 0.19924,-0.132827 0.478177,0 0.278936,0.119545 0.438329,0.411764 0.239088,0.478177 0.239088,1.354835 0.01328,0.863376 -0.159392,1.686903 -0.159392,0.823528 -0.478177,1.434532 -0.318785,0.611004 -0.664135,0.611004 -0.185958,0 -0.265654,-0.305502 -0.06641,-0.305502 0.02656,-0.743831 0.09298,-0.464895 0.14611,-1.049334 0,-0.01328 0,-0.02657 0.01328,-0.199241 -0.0797,-0.212523 -0.0797,-0.01328 -0.63757,0.06641 -0.06641,0.01328 -0.106261,0.02657 -0.611005,0.09298 -0.810245,0.0797 -0.185958,-0.01328 -0.332068,-0.159393 l -0.09298,-0.106261 -0.106262,0.159392 q -0.106262,0.159393 -0.212523,0.451612 -0.106262,0.278937 -0.14611,0.305502 -0.119544,0.14611 0.14611,0.265654 0.358633,0.14611 -0.05313,0.358633 -0.119544,0.06641 -0.278937,0.119544 -0.225806,0.0797 -0.943071,0.185958 -0.06641,0.01328 -0.225806,0.03985 -0.14611,0.01328 -0.185958,0.02657 -0.464895,0.0797 -0.717266,-0.0797 -0.252371,-0.172675 -0.425046,-0.650852 -0.265654,-0.743831 -0.252372,-1.554076 0.01328,-0.810244 0.305503,-1.195443 0.19924,-0.265654 0.318784,-0.305502 0.132827,-0.05313 0.624287,-0.06641 0.425047,0 0.571156,0.02657 0.14611,0.01328 0.49146,0.119544 0.425047,0.132827 0.717266,0.398481 0.305502,0.265654 0.371916,0.584439 0.03985,0.212523 0.0797,0.239089 0.03985,0.02656 0.19924,-0.03985 0.358633,-0.14611 1.222009,-0.14611 0.584438,0 0.624287,-0.03985 0.03985,-0.03985 0.03985,-0.597722 0.01328,-0.557873 -0.02657,-0.770396 -0.0797,-0.478177 -0.05313,-0.63757 0.02657,-0.159392 0.212524,-0.265654 z m -3.78557,2.111949 q -0.318785,-0.0797 -0.49146,0 -0.119544,0.06641 -0.185957,0.49146 -0.06641,0.425047 -0.03985,0.876659 0.02657,0.438329 0.0797,0.504742 0.05313,0.05313 0.451611,0.0797 0.29222,0.01328 0.345351,-0.05313 0.05313,-0.06641 0.106261,-0.49146 0.02657,-0.29222 0.06641,-0.544591 0.0797,-0.438329 0.01328,-0.611004 -0.06641,-0.172675 -0.34535,-0.252372 z m 1.47438,3.453502 q 0.34535,-0.05313 1.261856,-0.01328 0.916507,0.02657 1.115747,0.09298 0.332068,0.119544 0.425046,0.252371 0.106262,0.132827 0.106262,0.451612 0,0.464894 -0.278937,1.447814 -0.278936,0.98292 -0.464894,1.195443 -0.292219,0.318785 -0.49146,0 -0.19924,-0.318785 -0.05313,-0.916506 0.0797,-0.332068 0.212523,-1.009486 0.05313,-0.225805 0.0797,-0.371915 0.05313,-0.252371 -0.03985,-0.278937 -0.09298,-0.02657 -0.730549,0.03985 -0.98292,0.106262 -1.354835,0.02657 -0.371916,-0.0797 -0.371916,-0.411764 0,-0.239089 0.119544,-0.34535 0.132827,-0.119545 0.464895,-0.159393 z m 7.106237,-4.210615 q 1.500946,-0.278937 2.11195,0.823527 0.371915,0.664135 0.119544,1.806447 -0.212523,0.929789 -0.611004,1.075899 -0.159393,0.06641 -0.318785,-0.06641 -0.0797,-0.06641 -0.09298,-0.172675 -0.01328,-0.119544 -0.02656,-0.757114 -0.02657,-1.075898 -0.132827,-1.341552 -0.09298,-0.199241 -0.411764,-0.29222 -0.305502,-0.106261 -0.703983,-0.05313 -0.49146,0.06641 -0.703983,0.01328 -0.212523,-0.06641 -0.212523,-0.278937 0,-0.278936 0.252371,-0.478177 0.252371,-0.19924 0.730548,-0.278936 z m -0.518025,2.776084 q 0.185958,-0.09298 0.411764,0 0.225806,0.0797 0.332067,0.278937 0.06641,0.119544 0.0797,0.664134 0.01328,0.531308 -0.03985,1.009486 -0.03985,0.292219 -0.01328,0.332067 0.03985,0.02657 0.611004,0.02657 0.584439,-0.01328 1.142312,-0.06641 0.916506,-0.0797 1.155595,-0.01328 0.252371,0.05313 0.252371,0.345351 0,0.518025 -1.992405,0.796962 -0.225806,0.02657 -0.451611,0.06641 -1.421249,0.278937 -2.563562,-0.132827 -0.796961,-0.278937 -0.770396,-0.703983 0.01328,-0.14611 0.14611,-0.292219 0.0797,-0.106262 0.292219,-0.106262 0.212523,-0.01328 0.863375,0.06641 0.29222,0.03985 0.318785,0 0.03985,-0.03985 -0.01328,-0.34535 -0.132827,-0.783679 -0.0797,-1.301704 0.06641,-0.518026 0.318785,-0.624287 z m 14.956317,-2.975325 q 0.332067,-0.172675 0.637569,0.159393 0.318785,0.332067 0.478178,0.996202 0.159392,0.650852 0.09298,1.341553 -0.03985,0.358633 -0.03985,0.584438 0,0.212524 -0.03985,0.438329 -0.01328,0.06641 -0.05313,0.318785 -0.03985,0.239089 -0.05313,0.34535 -0.199241,1.288422 -0.371916,1.81973 -0.172675,0.518026 -0.438329,0.650853 -0.332067,0.172675 -0.518025,-0.09298 -0.185958,-0.265654 -0.14611,-0.83681 0.0797,-0.83681 0.106262,-1.833013 v -0.159392 h -1.062616 q -0.01328,0 -0.03985,0 -0.889941,0 -1.049334,-0.02657 -0.159392,-0.03985 -0.225806,-0.265654 0,0 0,-0.01328 -0.06641,-0.225806 -0.05313,-0.318785 0.02656,-0.106262 0.172675,-0.199241 0.19924,-0.119544 0.717266,-0.172675 0.518025,-0.05313 1.049333,0 0.371915,0.03985 0.464894,0.03985 0.106262,-0.01328 0.132827,-0.09298 0.03985,-0.09298 0.03985,-0.916506 0.01328,-0.83681 -0.02657,-1.062616 -0.05313,-0.305502 -0.01328,-0.451612 0.05313,-0.146109 0.239089,-0.252371 z m -5.844388,1.275139 q 0.464895,-0.159392 1.102464,0.14611 0.63757,0.305502 0.889941,0.810245 0.09298,0.19924 0.106262,0.584438 0.01328,0.371916 -0.06641,0.650853 -0.06641,0.212523 -0.02656,0.278936 0.02656,0.06641 0.318784,0.358633 0.305503,0.278937 0.43833,0.385199 0.146109,0.09298 0.358632,0.305502 0.212524,0.19924 0.358633,0.278936 0.318785,0.159393 -0.05313,0.438329 -0.159393,0.132827 -0.345351,0.02657 -0.106261,-0.05313 -0.292219,-0.0797 -0.385198,-0.03985 -1.102464,-0.544591 -0.385198,-0.278937 -0.385198,-0.159392 0,0.0797 -0.544591,0.531308 -0.531308,0.451611 -0.770397,0.571156 -0.225806,0.106261 -0.371915,0.06641 -0.14611,-0.03985 -0.14611,-0.239088 0,-0.132827 0.106262,-0.318785 0.106261,-0.199241 0.504742,-0.796962 0.371916,-0.544591 0.63757,-1.049334 0.278936,-0.518025 0.292219,-0.703983 0.02657,-0.185957 -0.239088,-0.385198 -0.265654,-0.19924 -0.650853,-0.265654 -0.398481,-0.0797 -0.464894,-0.278937 -0.05313,-0.172675 0.05313,-0.358632 0.106261,-0.199241 0.292219,-0.252372 z m 14.544554,-1.368118 q 0.106261,0.239089 0.132827,0.411764 0.03985,0.172675 0.05313,0.637569 0.02657,0.451612 0.06641,0.544591 0.03985,0.0797 0.212523,0.0797 0.292219,0 0.810245,0.185958 0.371915,0.14611 0.518025,0.358633 0.14611,0.212523 -0.01328,0.371916 -0.09298,0.0797 -0.225806,0.0797 -0.119544,-0.01328 -0.504742,-0.09298 -0.557874,-0.132827 -0.770397,-0.106262 -0.212523,0.02657 -0.212523,0.239089 0,0.172675 -0.119544,0.624287 -0.106262,0.438329 -0.199241,0.637569 -0.19924,0.398481 -0.451612,0.464895 -0.252371,0.05313 -0.411763,-0.265654 -0.06641,-0.132827 -0.0797,-0.597722 0,-0.478177 0.02656,-2.204928 0.01328,-0.810244 -0.01328,-0.956354 -0.02656,-0.159392 -0.185958,-0.385198 -0.172675,-0.239089 -0.0797,-0.464895 0.09298,-0.225806 0.385199,-0.305502 0.292219,-0.0797 0.571156,0.119544 0.292219,0.199241 0.49146,0.624287 z m -5.963933,0.518025 q 0.252372,-0.146109 0.850093,-0.01328 0.597722,0.119544 0.903224,0.398481 0.332067,0.292219 0.411763,0.650852 0.09298,0.34535 -0.05313,0.863376 -0.02657,0.146109 0.05313,0.278936 0.172676,0.239089 0.611005,0.597722 0.451611,0.358633 0.717265,0.464894 0.252372,0.09298 0.278937,0.265654 0.02657,0.172675 -0.19924,0.305502 -0.199241,0.119545 -0.703983,-0.01328 -0.49146,-0.14611 -0.929789,-0.451612 -0.358633,-0.252372 -0.425047,-0.265654 -0.05313,-0.01328 -0.172675,0.132827 -0.518025,0.624287 -0.996202,0.83681 -0.119545,0.05313 -0.159393,0.0797 -0.119544,0.05313 -0.252371,0 -0.119544,-0.06641 -0.159392,-0.19924 -0.06641,-0.212524 0.0797,-0.531308 0.159392,-0.318785 0.757114,-1.168878 0.54459,-0.783679 0.54459,-1.009485 0,-0.14611 -0.278936,-0.29222 -0.265654,-0.159392 -0.531308,-0.159392 -0.398481,0 -0.531308,-0.278937 -0.132827,-0.292219 0.185957,-0.49146 z m 4.197334,4.781772 q 0.146109,-0.05313 0.239088,-0.03985 0.09298,0.01328 0.398481,0.132827 0.451612,0.185958 0.650852,0.518026 0.199241,0.332067 0.14611,0.664135 -0.05313,0.332067 -0.358633,0.637569 -0.305502,0.305502 -0.796962,0.425046 -0.571156,0.14611 -0.969637,-0.239088 -0.385198,-0.398481 -0.278937,-1.036051 0.05313,-0.34535 0.318785,-0.624287 0.265654,-0.292219 0.650853,-0.438329 z m 0.371915,0.969637 q -0.14611,-0.09298 -0.225806,-0.06641 -0.06641,0.01328 -0.132827,0.159392 -0.06641,0.185958 -0.02656,0.278937 0.05313,0.09298 0.19924,0.0797 0.278937,-0.01328 0.332068,-0.159392 0.06641,-0.159393 -0.14611,-0.29222 z m 9.563558,-6.00378 q 0.225806,-0.0797 0.478177,0.106262 0.265654,0.172675 0.451612,0.557873 0.19924,0.411764 0.252371,0.796962 0.06641,0.385198 0.05313,1.089182 0,0.03985 -0.01328,0.132827 -0.01328,0.464894 0.02657,0.557873 0.03985,0.0797 0.278936,0.09298 0.03985,0.01328 0.06641,0.01328 0.916506,0.0797 1.314987,0.225806 0.411764,0.14611 0.411764,0.385199 0,0.0797 -0.305502,0.172675 -0.305503,0.0797 -0.49146,0.05313 -0.132827,-0.02657 -0.770397,0 l -0.650852,0.02657 -0.01328,0.159392 q -0.159392,1.155595 -0.451612,1.647055 -0.278936,0.478177 -0.677417,0.278937 -0.172675,-0.09298 -0.212524,-0.677418 -0.03985,-0.597721 0.03985,-1.899426 0.06641,-0.916506 0.05313,-1.793164 -0.01328,-0.876659 -0.0797,-1.168878 -0.159392,-0.597721 0.239089,-0.757114 z m -4.555966,0.398481 q 0.119544,-0.02657 0.371915,-0.01328 0.265654,0 0.557874,0.14611 0.292219,0.14611 0.504742,0.34535 0.212524,0.199241 0.371916,0.438329 0.159392,0.239089 0.159392,0.451612 0.01328,0.199241 -0.119544,0.34535 -0.34535,0.318785 -0.584439,-0.159392 -0.09298,-0.185958 -0.385198,-0.34535 -0.292219,-0.159393 -0.650852,-0.212523 -0.624287,-0.09298 -0.624287,-0.49146 0,-0.132827 0.119544,-0.29222 0.132827,-0.159392 0.278937,-0.212523 z m -0.796962,2.31119 q 0.265654,-0.03985 1.288422,0.01328 1.022768,0.03985 1.3814,0.106261 0.478178,0.0797 0.717266,0.239089 0.239089,0.159392 0.159393,0.358633 -0.02657,0.09298 -0.159393,0.119544 -0.119544,0.01328 -0.730548,0.01328 -0.757114,0 -1.235291,0.06641 -0.757114,0.09298 -1.222009,-0.02656 -0.464894,-0.119545 -0.49146,-0.438329 -0.01328,-0.185958 0.06641,-0.305502 0.0797,-0.132827 0.225806,-0.14611 z m 1.354835,1.32827 q 0.239089,-0.0797 0.757114,0.02656 0.531308,0.09298 0.703983,0.252372 0.438329,0.398481 0.132827,0.996202 -0.305502,0.584439 -1.102464,0.903224 -0.464894,0.185957 -0.943072,-0.02657 -0.464894,-0.212523 -0.464894,-0.611004 0,-0.358633 0.318785,-0.903224 0.332067,-0.54459 0.597721,-0.637569 z m 0.544591,0.929789 q -0.14611,-0.06641 -0.239089,-0.02657 -0.0797,0.02657 -0.159392,0.185958 -0.0797,0.159393 -0.06641,0.225806 0.02657,0.06641 0.159393,0.05313 0.332067,-0.03985 0.411763,-0.252371 0.03985,-0.119545 -0.106261,-0.185958 z m 12.884224,-4.96773 q 0.225806,-0.106261 0.571156,0.119545 0.358633,0.212523 0.518026,0.571156 0.172675,0.371915 0.212523,0.624286 0.05313,0.239089 0.0797,0.943072 0,0.09298 0,0.252371 0.01328,0.531308 0.06641,0.624287 0.05313,0.09298 0.385199,0.132827 0.09298,0 0.146109,0.01328 0.836811,0.106262 1.168878,0.239089 0.332067,0.132827 0.332067,0.332067 0,0.185958 -0.265654,0.239089 -0.252371,0.05313 -1.075898,0.03985 l -0.889941,-0.01328 -0.01328,0.159392 q -0.132827,0.98292 -0.305502,1.434532 -0.159392,0.451612 -0.425046,0.571156 -0.305502,0.132827 -0.531308,-0.05313 -0.106262,-0.0797 -0.14611,-0.876658 -0.03985,-0.810245 0.02657,-1.447814 0.252372,-2.4573 -0.06641,-3.267544 -0.172675,-0.438329 0.212523,-0.63757 z m -5.153687,1.540793 q 0.19924,-0.119544 0.703983,-0.03985 0.518025,0.06641 0.929789,0.265654 0.943071,0.504743 0.637569,1.647055 0,0.02656 -0.01328,0.0797 -0.0797,0.265654 0,0.371916 0.0797,0.09298 0.624287,0.425046 0.106261,0.06641 0.159392,0.09298 0.650852,0.398481 0.83681,0.464895 0.239089,0.0797 0.225806,0.292219 -0.01328,0.19924 -0.252371,0.265654 -0.119545,0.03985 -0.518026,-0.03985 -0.398481,-0.0797 -0.6907,-0.199241 -0.02657,0 -0.06641,-0.01328 -0.03985,-0.02657 -0.106261,-0.03985 -0.06641,-0.02657 -0.106262,-0.05313 -0.212523,-0.0797 -0.411763,-0.185958 -0.29222,-0.159392 -0.345351,-0.159392 -0.03985,0 -0.185957,0.132827 -1.115747,1.075898 -1.554076,0.982919 -0.172675,-0.02657 -0.159393,-0.265654 0.01328,-0.185957 0.358633,-0.783679 0.358633,-0.611004 0.664135,-0.956354 0.106262,-0.106262 0.305502,-0.504743 0.199241,-0.398481 0.199241,-0.478177 0,-0.14611 -0.212523,-0.265654 -0.212524,-0.119544 -0.717266,-0.252371 -0.425047,-0.119545 -0.518025,-0.358633 -0.09298,-0.239089 0.212523,-0.425047 z m 9.842482,-2.36432 q 0.132827,-0.03985 0.358633,0 0.225806,0.02657 0.34535,0.132827 0.212523,0.14611 0.265654,0.850093 0.06641,0.703983 -0.05313,1.394683 -0.03985,0.212523 -0.06641,0.544591 -0.02657,0.385198 -0.06641,0.664135 -0.05313,0.34535 -0.05313,0.703983 0,0.332067 -0.03985,0.438329 -0.03985,0.106261 -0.19924,0.185958 -0.305502,0.159392 -0.531308,-0.01328 -0.212523,-0.185958 -0.278937,-0.650852 -0.05313,-0.371916 -0.0797,-0.518026 -0.03985,-0.185957 -0.03985,-0.571156 0,-0.398481 -0.05313,-0.611004 -0.05313,-0.185958 -0.05313,-0.810245 0,-0.796961 0.119544,-1.195442 0.132827,-0.411764 0.425047,-0.544591 z m -0.01328,6.920286 q 0.185958,-0.0797 0.451612,0.01328 0.278937,0.0797 0.385198,0.239089 0.06641,0.132827 0.05313,0.34535 -0.01328,0.19924 -0.09298,0.278936 -0.265654,0.239089 -0.584439,0.172676 -0.318784,-0.06641 -0.425046,-0.385199 -0.05313,-0.185958 0.01328,-0.385198 0.06641,-0.212523 0.19924,-0.278937 z"
       id="text47"
       style="-inkscape-font-specification:iceSotong;stroke-width:1.88259;stroke-linecap:round;stroke-linejoin:round;paint-order:fill markers stroke"
       aria-label="먹고 저장하자!" />
  </g>
</svg>
