<?xml version="1.0" encoding="UTF-8" standalone="no"?>
<!-- Created with Inkscape (http://www.inkscape.org/) -->

<svg
   width="200mm"
   height="50mm"
   viewBox="0 0 755.90553 188.97638"
   version="1.1"
   id="svg1"
   inkscape:version="1.3 (0e150ed6c4, 2023-07-21)"
   sodipodi:docname="SaveEat_NewLogo_TypeLong.svg"
   xmlns:inkscape="http://www.inkscape.org/namespaces/inkscape"
   xmlns:sodipodi="http://sodipodi.sourceforge.net/DTD/sodipodi-0.dtd"
   xmlns="http://www.w3.org/2000/svg"
   xmlns:svg="http://www.w3.org/2000/svg">
  <sodipodi:namedview
     id="namedview1"
     pagecolor="#ffffff"
     bordercolor="#000000"
     borderopacity="0.25"
     inkscape:showpageshadow="2"
     inkscape:pageopacity="0.0"
     inkscape:pagecheckerboard="0"
     inkscape:deskcolor="#d1d1d1"
     inkscape:document-units="mm"
     showguides="true"
     inkscape:zoom="1.0570195"
     inkscape:cx="425.25233"
     inkscape:cy="146.1657"
     inkscape:window-width="1920"
     inkscape:window-height="1017"
     inkscape:window-x="1912"
     inkscape:window-y="-8"
     inkscape:window-maximized="1"
     inkscape:current-layer="g20">
    <sodipodi:guide
       position="377.95276,124.75594"
       orientation="1,0"
       id="guide1"
       inkscape:locked="false" />
    <sodipodi:guide
       position="0,94.488189"
       orientation="0,-1"
       id="guide2"
       inkscape:locked="false" />
  </sodipodi:namedview>
  <defs
     id="defs1" />
  <g
     inkscape:label="Layer 1"
     inkscape:groupmode="layer"
     id="layer1">
    <path
       d="M 90.49083,74.63808 V 34.953494 c 0,-1.874041 0.63388,-3.444813 1.90163,-4.712354 1.26771,-1.26826 2.83856,-1.90239 4.71253,-1.90239 1.87398,0 3.44482,0.63413 4.7125,1.90239 1.26776,1.268259 1.90163,2.839069 1.90163,4.712354 V 74.63808 h 6.61409 V 34.953494 c 0,-1.874041 0.63388,-3.444813 1.90163,-4.712354 1.26774,-1.26826 2.83859,-1.90239 4.71253,-1.90239 1.87401,0 3.44486,0.63413 4.71254,1.90239 1.26775,1.268259 1.90162,2.839069 1.90162,4.712354 V 74.63808 c 0,6.173216 -1.90155,11.574766 -5.70467,16.204536 -3.80308,4.629883 -8.51562,7.716472 -14.13764,9.259804 v 53.9048 c 0,1.87404 -0.63384,3.44488 -1.90156,4.71265 -1.26775,1.26825 -2.83863,1.90234 -4.7126,1.90234 -1.87398,0 -3.44482,-0.63409 -4.71251,-1.90234 -1.26774,-1.26826 -1.90162,-2.83914 -1.90162,-4.71265 v -53.9048 C 84.868941,98.559202 80.156401,95.47265 76.353291,90.842616 72.550211,86.212883 70.648681,80.811296 70.648681,74.63808 V 34.953494 c 0,-1.874041 0.63384,-3.444813 1.90156,-4.712354 1.26775,-1.26826 2.83863,-1.90239 4.71257,-1.90239 1.87401,0 3.44485,0.63413 4.71253,1.90239 1.26776,1.268259 1.90163,2.839069 1.90163,4.712354 V 74.63808 Z"
       id="path16"
       style="display:inline;stroke-width:0.165352"
       sodipodi:nodetypes="cscsssccscssssscscssscssscssscc" />
    <path
       id="path17"
       style="stroke-width:0.165352"
       d="m 283.01649,28.34646 c -6.06289,0 -11.93412,3.582539 -17.61124,10.747918 -5.67707,7.165304 -8.51425,14.606552 -8.51425,22.322911 v 39.684741 c 0,1.87332 0.63265,3.44352 1.90042,4.71174 1.26769,1.26819 2.83941,1.90379 4.71341,1.90379 h 13.22767 v 46.29683 c 0,1.87355 0.63435,3.44512 1.90212,4.71341 1.26769,1.26818 2.83771,1.90212 4.71171,1.90212 1.87397,0 3.44564,-0.63394 4.71341,-1.90212 1.26777,-1.26773 1.90042,-2.8394 1.90042,-4.71341 V 36.118983 c 0,-2.094539 -0.66141,-3.913625 -1.98414,-5.456844 -1.32287,-1.543299 -2.97528,-2.315679 -4.95953,-2.315679 z" />
    <g
       id="g20"
       transform="matrix(2.8346457,0,0,2.8346457,-268.27737,-211.34836)">
      <path
         id="circle17"
         style="fill:#000000;fill-opacity:1;stroke:none;stroke-width:2.98346;stroke-linecap:round;stroke-linejoin:round;stroke-dasharray:none;stroke-opacity:1;paint-order:fill markers stroke"
         d="M 161.75 87.889456 A 20 20 0 0 0 141.74984 107.88961 A 20 20 0 0 0 161.75 127.88977 A 20 20 0 0 0 181.75015 107.88961 A 20 20 0 0 0 161.75 87.889456 z M 161.59428 91.607403 C 162.68945 91.604142 163.78458 91.702059 164.85885 91.914706 C 170.19337 92.852025 174.79572 96.749527 176.82849 101.73667 C 178.60836 105.92737 178.3899 110.97454 176.33309 115.09262 C 173.99198 120.08178 168.93756 123.45587 163.47806 124.07743 C 161.37094 124.3306 159.00703 124.10205 156.87657 123.41321 C 153.9798 122.48624 151.25494 120.72588 149.25119 118.32481 C 144.95082 113.29685 144.27037 105.57342 147.57825 99.850828 C 150.2398 95.217853 155.19236 92.048341 160.50012 91.643921 C 160.86421 91.620837 161.22922 91.608491 161.59428 91.607403 z " />
      <path
         id="path19"
         style="fill:#000000;fill-opacity:1;stroke:none;stroke-width:2.98346;stroke-linecap:round;stroke-linejoin:round;stroke-dasharray:none;stroke-opacity:1;paint-order:fill markers stroke"
         d="M 161.10163 92.674694 C 156.76677 92.817814 152.64672 95.033896 149.92505 98.323273 C 146.05213 102.86808 145.53785 109.74568 148.2783 114.98169 C 149.19535 116.79861 150.55057 118.38966 152.04861 119.61052 C 156.03042 122.90618 161.73123 124.04285 166.6255 122.29356 C 171.08498 120.79405 174.80224 117.16141 176.19804 112.64178 C 177.13456 109.85027 177.1974 106.88123 176.47434 103.99321 C 174.94454 97.965306 169.37845 93.191767 163.15422 92.735328 C 162.47145 92.677928 161.78664 92.655194 161.10163 92.674694 z M 161.59635 93.733716 C 165.54504 93.621927 169.43869 95.350876 172.10389 98.245413 C 174.90704 101.17413 176.29054 105.34911 175.8239 109.37307 C 175.39549 114.04898 172.41568 118.34925 168.23367 120.46146 C 163.30722 123.12601 156.85791 122.32223 152.61636 118.71204 C 149.05213 115.77722 147.19724 111.01316 147.68436 106.43854 C 148.16852 99.797875 153.99332 94.305862 160.55868 93.764722 C 160.90446 93.740522 161.2497 93.726716 161.59635 93.733716 z " />
    </g>
    <path
       style="-inkscape-font-specification:'Room No.703';stroke-width:7.55906;stroke-linecap:round;stroke-linejoin:round;paint-order:fill markers stroke"
       d="m 342.16636,105.79833 q -5.43998,0 -10.42663,-1.13333 -4.98666,-1.02 -8.83998,-3.73999 -3.73999,-2.606657 -6.11998,-7.026644 -2.26666,-4.419987 -2.37999,-11.106634 -0.11334,-2.833325 1.47333,-4.193321 1.69999,-1.473329 3.85332,-1.473329 2.15333,-0.113333 4.07999,1.13333 1.92666,1.13333 2.49332,3.39999 1.24667,3.966655 3.73999,6.233315 2.49333,2.26666 5.43999,3.173324 2.94665,0.793331 6.00664,0.453332 3.17333,-0.339999 5.77999,-1.586662 2.60666,-1.359996 4.19332,-3.39999 1.58666,-2.153327 1.58666,-4.759986 0,-3.966655 -1.47333,-5.779983 -1.47333,-1.926661 -4.07999,-2.833325 -2.60666,-1.019997 -6.23331,-1.699995 -3.51332,-0.793331 -7.70665,-2.493326 -3.39999,-1.13333 -6.45998,-3.059991 -2.94665,-2.039994 -4.98665,-5.099985 -1.92666,-3.173324 -2.49332,-7.819977 -0.45334,-4.646653 1.13333,-11.3333 1.13333,-4.53332 3.73998,-7.593311 2.72,-3.173324 6.45999,-4.986652 3.73998,-1.926661 8.04664,-2.719992 4.41999,-0.793331 8.83997,-0.679998 4.53332,0 8.72664,0.793331 4.30666,0.793331 7.70665,2.039994 2.60666,1.019997 3.28665,3.286657 0.79334,2.26666 0.11334,4.53332 -0.56667,2.26666 -2.38,3.966655 -1.81332,1.586662 -4.19332,1.246663 -3.73999,-0.453332 -7.70664,-0.793331 -3.85332,-0.339999 -7.13998,0.226666 -3.28666,0.453332 -5.43998,2.379993 -2.15333,1.813328 -2.26666,5.66665 -0.11334,2.946658 1.13333,4.759986 1.35999,1.813328 3.62665,3.059991 2.26666,1.13333 5.09999,2.039994 2.94666,0.793331 5.89331,1.813328 3.05999,1.019997 5.89332,2.606659 2.83332,1.473329 4.98665,3.966655 2.15333,2.493326 3.28666,6.346648 1.13333,3.739989 0.79333,9.293306 -0.34,5.779983 -2.94666,10.086637 -2.49332,4.193321 -6.34665,7.026648 -3.73999,2.94666 -8.49997,4.30665 -4.64665,1.47333 -9.29331,1.47333 z m 85.90651,-54.399839 q -2.03999,5.099985 -2.83332,10.539969 -0.79334,5.326651 -1.36,10.766635 -0.56667,6.119982 -0.68,12.126631 0,5.893316 0.90667,11.899965 0.45333,3.286659 -0.79334,4.079989 -1.13333,0.79333 -4.07998,0.22667 -6.00665,-1.473334 -8.04665,-4.986657 -2.03999,-3.626656 -2.26666,-10.426636 -1.81332,3.173324 -4.19332,6.686647 -2.37999,3.513323 -5.21332,6.459981 -2.37999,2.606655 -6.34664,2.946655 -3.96666,0.34 -7.81998,-1.35999 -3.73999,-1.586665 -6.68665,-4.873322 -2.83332,-3.39999 -2.94666,-8.046643 -0.45333,-5.439984 0.22667,-10.766635 0.68,-5.439984 2.49333,-10.19997 1.92666,-4.759986 4.98665,-8.613308 3.17332,-3.853322 7.47998,-6.346648 2.49332,-1.359996 6.00665,-1.586662 3.62665,-0.339999 7.02664,0.453332 3.51332,0.793331 6.11998,2.493326 2.72,1.586662 3.51333,3.966655 1.01999,-2.153327 2.15332,-4.306654 1.24667,-2.26666 2.72,-3.853322 0.79333,-0.906664 2.15332,-1.246663 1.36,-0.453332 2.83333,-0.226666 1.47333,0.113333 2.71999,0.793331 1.24666,0.566665 1.92666,1.586662 0.22667,0.453332 0.11333,0.906664 0,0.453332 -0.11333,0.906664 z M 405.5196,73.498426 q 0.11334,-0.226666 0.11334,-0.906664 -0.56667,-6.913313 -1.7,-9.633305 -1.13333,-2.719992 -2.60666,-2.493326 -1.47333,0.226666 -3.05999,2.833325 -1.47333,2.606659 -2.83332,6.233315 -1.36,3.626656 -2.38,7.819977 -1.01999,4.079988 -1.47333,7.366645 -0.33999,3.286657 0.11334,5.213318 0.45333,1.926661 2.03999,1.13333 1.58666,-0.793331 4.41999,-4.873319 2.94666,-4.079988 7.36664,-12.693296 z m 49.86643,13.033295 q 1.92666,-5.893316 3.28665,-9.746638 1.36,-3.853322 2.49333,-6.79998 1.13333,-3.059991 2.03999,-5.893316 1.02,-2.946658 2.26666,-7.026646 1.58666,-4.873319 4.30666,-6.573314 2.83332,-1.813328 5.32665,-1.246663 2.60666,0.453332 4.07999,2.946658 1.58666,2.379993 0.56666,5.893316 -1.24666,4.079988 -2.71999,9.06664 -1.36,4.873319 -3.05999,9.973304 -1.7,4.986652 -3.62666,9.746638 -1.92666,4.646653 -4.19332,8.386642 -2.26666,3.626656 -4.87332,5.893318 -2.49332,2.26666 -5.43998,2.26666 -4.53332,0.11333 -7.93331,-3.28666 -3.39999,-3.399989 -6.00665,-9.406638 -2.60666,-6.006649 -4.75999,-14.166625 -2.15332,-8.273309 -4.19332,-17.793281 -0.79333,-3.966655 0.90667,-6.346648 1.69999,-2.493326 4.19332,-3.059991 2.60666,-0.679998 5.09998,0.679998 2.60666,1.359996 3.62666,4.873319 1.13333,3.853322 1.81333,6.79998 0.67999,2.946658 1.47332,6.233315 0.90667,3.286657 2.04,7.706644 1.24666,4.306654 3.28666,10.879968 z m 46.46646,-5.66665 q -1.47333,-0.226666 -1.69999,-0.113333 -0.11333,0 -0.22667,1.019997 -0.56666,4.53332 0.79333,7.253312 1.36,2.606659 3.96666,3.513323 2.71999,0.793331 6.23331,-0.113333 3.51333,-0.906664 7.36665,-3.626656 1.81333,-1.246663 4.07999,-1.246663 2.26666,-0.113333 3.85332,0.793331 1.69999,0.793331 2.26666,2.493326 0.56666,1.699995 -0.90667,3.966655 -3.28665,4.759986 -7.59331,6.57331 -4.30665,1.92667 -10.08663,2.04 -5.77999,0.11333 -10.65331,-1.36 -4.87331,-1.35999 -8.49997,-4.306652 -3.51332,-2.833325 -5.55332,-7.026646 -1.92666,-4.193321 -1.92666,-9.519972 0.11333,-5.099985 0.79333,-9.406639 0.79333,-4.306654 2.49333,-7.93331 1.69999,-3.739989 4.41999,-6.913313 2.83332,-3.173324 6.91331,-6.119982 4.75998,-3.286657 10.76663,-3.739989 6.11999,-0.453332 11.3333,1.586662 5.32665,2.039994 8.49998,6.573314 3.17332,4.419987 2.15333,10.993301 -0.79334,4.646653 -3.62666,7.819977 -2.83333,3.173324 -6.79998,4.986652 -3.96666,1.813328 -8.83997,2.26666 -4.75999,0.453332 -9.51998,-0.453332 z m 9.17998,-21.873269 q -3.62666,2.606659 -5.43999,6.006649 -1.69999,3.286657 -3.51332,7.819977 3.17332,0 5.89332,-0.453332 2.71999,-0.453332 4.87331,-1.586662 2.15333,-1.246663 3.51333,-3.286657 1.47333,-2.153327 1.92666,-5.439984 0.11333,-1.586662 -0.56667,-2.606659 -0.67999,-1.019997 -1.81332,-1.359996 -1.13333,-0.453332 -2.49333,-0.113333 -1.24666,0.226666 -2.37999,1.019997 z m 62.78656,-33.206569 q 3.39999,-0.339999 4.98665,0.566665 1.58666,0.906664 2.04,2.153327 0.56666,1.246663 0.33999,2.379993 -0.11333,1.019997 -0.11333,0.906664 0,-0.113333 -0.11333,1.13333 -0.11333,1.13333 -0.79333,2.719992 -0.68,1.473329 -2.15333,2.833325 -1.36,1.359996 -4.07999,1.699995 -3.51332,0.566665 -5.43998,0.679998 -1.92666,0.113333 -3.39999,0.226666 -1.47333,0.113333 -3.17333,0.339999 -1.69999,0.113333 -4.75998,0.679998 -1.7,0.226666 -2.37999,1.699995 -0.56667,1.359996 -0.68,2.833325 -0.22667,1.926661 -0.34,3.059991 0,1.13333 -0.11333,2.039994 0,0.906664 -0.11334,1.813328 0,0.793331 -0.11333,2.153327 -0.22667,1.586662 0,2.379993 0.22667,0.679998 2.15333,0.566665 3.96665,-0.453332 6.34664,-0.679998 2.49333,-0.226666 4.64666,-0.339999 2.26666,-0.113333 4.75998,-0.339999 2.49333,-0.226666 6.45998,-0.679998 1.36,-0.113333 2.15333,0.566665 0.79333,0.679998 1.24666,1.699995 0.45334,1.019997 0.56667,2.039994 0.22667,0.906664 0.22667,1.246663 0,0.453332 0.11333,1.586662 0.11333,1.13333 -0.34,2.493326 -0.45333,1.246663 -1.58666,2.379993 -1.13333,1.13333 -3.51333,1.586662 -3.96665,0.679998 -6.34664,1.019997 -2.26666,0.226666 -4.30666,0.453332 -1.92666,0.113333 -4.19332,0.453332 -2.15333,0.226666 -5.89331,0.906664 -1.92667,0.339999 -2.72,1.246663 -0.67999,0.906664 -0.90666,2.833325 -0.22667,2.039994 -0.34,2.606659 -0.11333,0.566665 -0.22667,1.019997 0,0.339999 -0.11333,1.13333 0,0.793331 -0.11333,3.059991 0,2.039994 0.79333,2.26666 0.90666,0.226666 2.60666,0.113333 4.41999,-0.113333 9.2933,-0.339999 4.87332,-0.339999 12.23997,-1.246663 2.71999,-0.339999 3.85332,1.246663 1.24666,1.473329 1.47333,3.513323 0.22667,1.926661 0,3.739989 -0.22667,1.699995 -0.34,2.039994 -1.24666,2.26666 -3.96665,2.719992 -2.60666,0.453332 -5.21332,0.906664 -4.19332,0.679995 -7.36665,1.019995 -3.05999,0.45333 -5.89331,0.56667 -2.83333,0.22666 -5.77999,0.34 -2.94665,0.11333 -6.79998,0.22666 -5.09998,0.11334 -8.04664,-1.81333 -2.94666,-1.926657 -2.83332,-6.57331 0.11333,-6.79998 0.33999,-14.053292 0.34,-7.253312 0.68,-14.506624 0.45333,-7.366645 0.90667,-14.506624 0.45333,-7.253312 1.01999,-13.939959 0.34,-2.606659 1.58667,-4.193321 1.24666,-1.586662 2.94665,-2.493326 1.81333,-0.906664 3.85333,-1.359996 2.03999,-0.453332 3.96665,-0.793331 z m 64.03298,25.613258 q -2.04,5.099985 -2.83333,10.539969 -0.79333,5.326651 -1.35999,10.766635 -0.56667,6.119982 -0.68,12.126631 0,5.893316 0.90666,11.899965 0.45333,3.286659 -0.79333,4.079989 -1.13333,0.79333 -4.07999,0.22667 -6.00665,-1.473334 -8.04664,-4.986657 -2.03999,-3.626656 -2.26666,-10.426636 -1.81333,3.173324 -4.19332,6.686647 -2.37999,3.513323 -5.21332,6.459981 -2.37999,2.606655 -6.34665,2.946655 -3.96665,0.34 -7.81997,-1.35999 -3.73999,-1.586665 -6.68665,-4.873322 -2.83333,-3.39999 -2.94666,-8.046643 -0.45333,-5.439984 0.22667,-10.766635 0.68,-5.439984 2.49332,-10.19997 1.92666,-4.759986 4.98666,-8.613308 3.17332,-3.853322 7.47997,-6.346648 2.49333,-1.359996 6.00665,-1.586662 3.62666,-0.339999 7.02665,0.453332 3.51332,0.793331 6.11998,2.493326 2.71999,1.586662 3.51332,3.966655 1.02,-2.153327 2.15333,-4.306654 1.24666,-2.26666 2.71999,-3.853322 0.79333,-0.906664 2.15333,-1.246663 1.36,-0.453332 2.83332,-0.226666 1.47333,0.113333 2.72,0.793331 1.24666,0.566665 1.92666,1.586662 0.22666,0.453332 0.11333,0.906664 0,0.453332 -0.11333,0.906664 z m -22.55327,22.099935 q 0.11333,-0.226666 0.11333,-0.906664 -0.56666,-6.913313 -1.69999,-9.633305 -1.13333,-2.719992 -2.60666,-2.493326 -1.47333,0.226666 -3.05999,2.833325 -1.47333,2.606659 -2.83333,6.233315 -1.35999,3.626656 -2.37999,7.819977 -1.02,4.079988 -1.47333,7.366645 -0.34,3.286657 0.11333,5.213318 0.45334,1.926661 2.04,1.13333 1.58666,-0.793331 4.41999,-4.873319 2.94665,-4.079988 7.36664,-12.693296 z m 53.49304,19.26661 q -0.11334,1.586662 -0.34,3.173324 -0.11334,1.586662 -0.68,2.946658 -0.56667,1.359992 -1.81333,2.266662 -1.24666,1.02 -3.51332,1.24666 -2.26666,0 -3.85332,0 -1.47333,0 -2.49333,-0.34 -1.02,-0.34 -1.58666,-1.35999 -0.56667,-0.906668 -0.90667,-2.833329 -0.33999,-5.099985 -0.22666,-9.519972 0.22666,-4.53332 0.45333,-9.746638 0,-3.739989 0.11333,-9.406639 0.22667,-5.66665 0.45334,-12.013298 -3.39999,0.226666 -7.13998,-0.113333 -3.62666,-0.339999 -6.91332,-2.153327 -1.58666,-0.566665 -2.15332,-1.926661 -0.45334,-1.359996 0,-2.719992 0.45333,-1.473329 1.81332,-2.833325 1.36,-1.359996 3.62666,-1.926661 3.28666,-0.679998 6.00665,-1.13333 2.71999,-0.453332 5.32665,-0.906664 0.22667,-3.853322 0.45333,-7.026646 0.22667,-3.286657 0.45333,-5.553317 0.68,-2.153327 1.24667,-3.286657 0.68,-1.13333 1.69999,-1.473329 1.02,-0.453332 2.49333,-0.339999 1.58666,0 4.07999,0.226666 2.60666,0.226666 3.62665,1.586662 1.13333,1.246663 1.24667,2.833325 0,3.626656 -0.11334,6.346648 0,2.606659 0,5.099985 l 3.51333,-0.339999 q 5.32665,-0.453332 8.04664,1.13333 2.71999,1.586662 3.17332,3.853322 0.56667,2.153327 -1.01999,4.306654 -1.58667,2.153327 -4.98666,2.719992 l -9.2933,1.359996 z"
       id="text20"
       transform="rotate(0.47985983)"
       aria-label="SaveEat" />
    <path
       d="m 339.97495,120.3418 q 0.8,-0.53334 1.91999,0 1.12,0.48 1.76,1.65333 0.96,1.92 0.96,5.44 0.0533,3.46666 -0.64,6.77332 -0.64,3.30667 -1.92,5.76 -1.27999,2.45333 -2.66666,2.45333 -0.74667,0 -1.06667,-1.22666 -0.26666,-1.22667 0.10667,-2.98667 0.37333,-1.86666 0.58667,-4.21333 0,-0.0533 0,-0.10667 0.0533,-0.79999 -0.32,-0.85333 -0.32,-0.0533 -2.56,0.26667 -0.26667,0.0533 -0.42667,0.10666 -2.45333,0.37334 -3.25333,0.32 -0.74667,-0.0533 -1.33333,-0.63999 l -0.37334,-0.42667 -0.42666,0.64 q -0.42667,0.64 -0.85333,1.81333 -0.42667,1.12 -0.58667,1.22667 -0.48,0.58666 0.58667,1.06666 1.43999,0.58667 -0.21334,1.44 -0.48,0.26667 -1.12,0.48 -0.90666,0.32 -3.78666,0.74667 -0.26667,0.0533 -0.90667,0.16 -0.58666,0.0533 -0.74666,0.10666 -1.86667,0.32 -2.88,-0.32 -1.01333,-0.69333 -1.70667,-2.61333 -1.06666,-2.98666 -1.01333,-6.23999 0.0533,-3.25334 1.22667,-4.8 0.8,-1.06667 1.27999,-1.22667 0.53334,-0.21333 2.50667,-0.26666 1.70667,0 2.29333,0.10666 0.58667,0.0533 1.97333,0.48 1.70667,0.53334 2.88,1.6 1.22667,1.06667 1.49333,2.34667 0.16,0.85333 0.32,0.96 0.16,0.10666 0.8,-0.16 1.44,-0.58667 4.90667,-0.58667 2.34666,0 2.50666,-0.16 0.16,-0.16 0.16,-2.4 0.0533,-2.24 -0.10666,-3.09333 -0.32,-1.92 -0.21334,-2.56 0.10667,-0.64 0.85334,-1.06666 z m -15.19999,8.47999 q -1.28,-0.32 -1.97334,0 -0.48,0.26667 -0.74666,1.97333 -0.26667,1.70667 -0.16,3.52 0.10666,1.76 0.32,2.02667 0.21333,0.21333 1.81333,0.32 1.17333,0.0533 1.38666,-0.21334 0.21334,-0.26666 0.42667,-1.97333 0.10667,-1.17333 0.26667,-2.18666 0.32,-1.76 0.0533,-2.45334 -0.26667,-0.69333 -1.38666,-1.01333 z m 5.91999,13.86666 q 1.38667,-0.21333 5.06667,-0.0533 3.67999,0.10666 4.47999,0.37333 1.33334,0.48 1.70667,1.01333 0.42666,0.53333 0.42666,1.81333 0,1.86667 -1.11999,5.81333 -1.12,3.94667 -1.86667,4.8 -1.17333,1.28 -1.97333,0 -0.8,-1.28 -0.21334,-3.68 0.32,-1.33333 0.85334,-4.05333 0.21333,-0.90666 0.32,-1.49333 0.21333,-1.01333 -0.16,-1.12 -0.37334,-0.10667 -2.93333,0.16 -3.94667,0.42667 -5.44,0.10667 -1.49333,-0.32 -1.49333,-1.65334 0,-0.95999 0.48,-1.38666 0.53333,-0.48 1.86666,-0.64 z m 28.53329,-16.90666 q 6.02666,-1.12 8.48,3.30667 1.49333,2.66666 0.48,7.25333 -0.85334,3.73333 -2.45334,4.31999 -0.64,0.26667 -1.28,-0.26666 -0.32,-0.26667 -0.37333,-0.69334 -0.0533,-0.48 -0.10667,-3.03999 -0.10666,-4.32 -0.53333,-5.38667 -0.37333,-0.8 -1.65333,-1.17333 -1.22667,-0.42667 -2.82667,-0.21333 -1.97333,0.26666 -2.82666,0.0533 -0.85333,-0.26667 -0.85333,-1.12 0,-1.12 1.01333,-1.92 1.01333,-0.8 2.93333,-1.12 z m -2.08,11.14666 q 0.74667,-0.37333 1.65333,0 0.90667,0.32 1.33334,1.12 0.26666,0.48 0.32,2.66667 0.0533,2.13333 -0.16,4.05333 -0.16,1.17333 -0.0533,1.33333 0.16,0.10667 2.45334,0.10667 2.34666,-0.0533 4.58666,-0.26667 3.68,-0.32 4.64,-0.0533 1.01333,0.21333 1.01333,1.38666 0,2.08 -8,3.2 -0.90666,0.10667 -1.81333,0.26667 -5.70666,1.12 -10.29333,-0.53334 -3.19999,-1.11999 -3.09333,-2.82666 0.0533,-0.58667 0.58667,-1.17333 0.32,-0.42667 1.17333,-0.42667 0.85334,-0.0533 3.46667,0.26667 1.17333,0.16 1.28,0 0.16,-0.16 -0.0533,-1.38667 -0.53333,-3.14666 -0.32,-5.22666 0.26667,-2.08 1.28,-2.50667 z m 60.05329,-11.94666 q 1.33333,-0.69333 2.56,0.64 1.28,1.33334 1.92,4 0.64,2.61333 0.37333,5.38666 -0.16,1.44 -0.16,2.34667 0,0.85333 -0.16,1.76 -0.0533,0.26666 -0.21333,1.28 -0.16,0.96 -0.21334,1.38666 -0.8,5.17333 -1.49333,7.30667 -0.69333,2.07999 -1.76,2.61333 -1.33333,0.69333 -2.08,-0.37334 -0.74666,-1.06666 -0.58666,-3.35999 0.32,-3.36 0.42666,-7.36 v -0.64 h -4.26666 q -0.0533,0 -0.16,0 -3.57333,0 -4.21333,-0.10667 -0.64,-0.16 -0.90667,-1.06666 0,0 0,-0.0533 -0.26666,-0.90667 -0.21333,-1.28 0.10667,-0.42667 0.69333,-0.8 0.8,-0.48 2.88,-0.69334 2.08,-0.21333 4.21333,0 1.49333,0.16 1.86667,0.16 0.42666,-0.0533 0.53333,-0.37333 0.16,-0.37333 0.16,-3.68 0.0533,-3.36 -0.10667,-4.26666 -0.21333,-1.22667 -0.0533,-1.81333 0.21333,-0.58667 0.96,-1.01334 z m -23.46665,5.12 q 1.86666,-0.64 4.42666,0.58667 2.56,1.22666 3.57333,3.25333 0.37333,0.8 0.42667,2.34666 0.0533,1.49334 -0.26667,2.61334 -0.26667,0.85333 -0.10667,1.11999 0.10667,0.26667 1.28,1.44 1.22667,1.12 1.76,1.54667 0.58667,0.37333 1.44,1.22667 0.85333,0.79999 1.44,1.11999 1.28,0.64 -0.21333,1.76 -0.64,0.53334 -1.38667,0.10667 -0.42666,-0.21333 -1.17333,-0.32 -1.54667,-0.16 -4.42666,-2.18667 -1.54667,-1.11999 -1.54667,-0.63999 0,0.32 -2.18667,2.13333 -2.13333,1.81333 -3.09333,2.29333 -0.90666,0.42667 -1.49333,0.26667 -0.58667,-0.16 -0.58667,-0.96 0,-0.53334 0.42667,-1.28 0.42667,-0.8 2.02667,-3.2 1.49333,-2.18667 2.55999,-4.21333 1.12,-2.08 1.17334,-2.82667 0.10666,-0.74666 -0.96,-1.54666 -1.06667,-0.8 -2.61333,-1.06667 -1.6,-0.32 -1.86667,-1.12 -0.21333,-0.69333 0.21333,-1.44 0.42667,-0.8 1.17334,-1.01333 z m 58.39995,-5.49333 q 0.42667,0.96 0.53334,1.65333 0.16,0.69334 0.21333,2.56 0.10667,1.81333 0.26666,2.18667 0.16,0.32 0.85334,0.32 1.17333,0 3.25333,0.74666 1.49333,0.58667 2.08,1.44 0.58666,0.85333 -0.0533,1.49333 -0.37333,0.32 -0.90666,0.32 -0.48,-0.0533 -2.02667,-0.37333 -2.24,-0.53333 -3.09333,-0.42667 -0.85333,0.10667 -0.85333,0.96 0,0.69334 -0.48,2.50667 -0.42667,1.76 -0.8,2.56 -0.8,1.6 -1.81333,1.86666 -1.01334,0.21334 -1.65334,-1.06666 -0.26666,-0.53334 -0.31999,-2.4 0,-1.92 0.10666,-8.85333 0.0533,-3.25333 -0.0533,-3.84 -0.10667,-0.64 -0.74667,-1.54666 -0.69333,-0.96 -0.32,-1.86667 0.37334,-0.90666 1.54667,-1.22666 1.17333,-0.32 2.29333,0.48 1.17333,0.79999 1.97333,2.50666 z m -23.94665,2.08 q 1.01333,-0.58667 3.41333,-0.0533 2.4,0.48 3.62667,1.59999 1.33333,1.17334 1.65333,2.61334 0.37333,1.38666 -0.21334,3.46666 -0.10666,0.58667 0.21334,1.12 0.69333,0.96 2.45333,2.4 1.81333,1.44 2.88,1.86666 1.01333,0.37334 1.12,1.06667 0.10666,0.69333 -0.8,1.22667 -0.8,0.48 -2.82667,-0.0533 -1.97333,-0.58666 -3.73333,-1.81333 -1.44,-1.01333 -1.70666,-1.06667 -0.21334,-0.0533 -0.69334,0.53334 -2.08,2.50666 -3.99999,3.36 -0.48,0.21333 -0.64,0.32 -0.48,0.21333 -1.01334,0 -0.48,-0.26667 -0.64,-0.8 -0.26666,-0.85334 0.32,-2.13334 0.64,-1.28 3.04,-4.69333 2.18667,-3.14666 2.18667,-4.05333 0,-0.58666 -1.12,-1.17333 -1.06667,-0.64 -2.13333,-0.64 -1.6,0 -2.13334,-1.12 -0.53333,-1.17333 0.74667,-1.97333 z m 16.85332,19.19999 q 0.58667,-0.21334 0.96,-0.16 0.37334,0.0533 1.6,0.53333 1.81333,0.74667 2.61333,2.08 0.8,1.33333 0.58667,2.66666 -0.21333,1.33334 -1.44,2.56 -1.22667,1.22667 -3.2,1.70667 -2.29333,0.58666 -3.89333,-0.96 -1.54666,-1.6 -1.12,-4.16 0.21334,-1.38666 1.28,-2.50666 1.06667,-1.17334 2.61333,-1.76 z m 1.49334,3.89333 q -0.58667,-0.37333 -0.90667,-0.26667 -0.26667,0.0533 -0.53333,0.64 -0.26667,0.74667 -0.10667,1.12 0.21333,0.37333 0.8,0.32 1.12,-0.0533 1.33333,-0.64 0.26667,-0.64 -0.58666,-1.17333 z m 38.40002,-24.10665 q 0.90667,-0.32 1.92,0.42666 1.06667,0.69334 1.81333,2.24 0.8,1.65333 1.01334,3.2 0.26666,1.54667 0.21333,4.37333 0,0.16 -0.0533,0.53333 -0.0533,1.86667 0.10667,2.24 0.16,0.32 1.12,0.37333 0.16,0.0533 0.26667,0.0533 3.68,0.32 5.27999,0.90666 1.65334,0.58667 1.65334,1.54667 0,0.32 -1.22667,0.69333 -1.22667,0.32 -1.97333,0.21334 -0.53333,-0.10667 -3.09333,0 l -2.61333,0.10666 -0.0533,0.64 q -0.64,4.64 -1.81333,6.61333 -1.12,1.92 -2.72,1.12 -0.69333,-0.37333 -0.85333,-2.72 -0.16,-2.4 0.16,-7.62666 0.26666,-3.68 0.21333,-7.2 -0.0533,-3.51999 -0.32,-4.69333 -0.64,-2.39999 0.96,-3.03999 z m -18.29332,1.6 q 0.48,-0.10667 1.49333,-0.0533 1.06667,0 2.24,0.58667 1.17333,0.58666 2.02667,1.38666 0.85333,0.8 1.49333,1.76 0.64,0.96 0.64,1.81334 0.0533,0.79999 -0.48,1.38666 -1.38667,1.28 -2.34667,-0.64 -0.37333,-0.74666 -1.54666,-1.38666 -1.17334,-0.64 -2.61334,-0.85334 -2.50666,-0.37333 -2.50666,-1.97333 0,-0.53333 0.48,-1.17333 0.53333,-0.64 1.12,-0.85333 z m -3.2,9.27999 q 1.06667,-0.16 5.17333,0.0533 4.10667,0.16 5.54666,0.42667 1.92,0.32 2.88,0.96 0.96,0.64 0.64,1.44 -0.10666,0.37333 -0.64,0.48 -0.48,0.0533 -2.93333,0.0533 -3.04,0 -4.96,0.26667 -3.03999,0.37333 -4.90666,-0.10667 -1.86667,-0.48 -1.97333,-1.76 -0.0533,-0.74666 0.26666,-1.22666 0.32,-0.53334 0.90667,-0.58667 z m 5.44,5.33333 q 0.96,-0.32 3.04,0.10667 2.13333,0.37333 2.82666,1.01333 1.76,1.6 0.53333,4 -1.22666,2.34666 -4.42666,3.62666 -1.86667,0.74667 -3.78666,-0.10667 -1.86667,-0.85333 -1.86667,-2.45333 0,-1.44 1.28,-3.62666 1.33333,-2.18667 2.4,-2.56 z m 2.18666,3.73333 q -0.58666,-0.26667 -0.96,-0.10667 -0.32,0.10667 -0.64,0.74667 -0.32,0.64 -0.26666,0.90667 0.10666,0.26666 0.64,0.21333 1.33333,-0.16 1.65333,-1.01333 0.16,-0.48 -0.42667,-0.74667 z m 51.73333,-19.94665 q 0.90667,-0.42667 2.29334,0.48 1.43999,0.85333 2.07999,2.29333 0.69334,1.49333 0.85334,2.50666 0.21333,0.96 0.32,3.78667 0,0.37333 0,1.01333 0.0533,2.13333 0.26666,2.50667 0.21334,0.37333 1.54667,0.53333 0.37333,0 0.58667,0.0533 3.35999,0.42667 4.69333,0.96 1.33333,0.53333 1.33333,1.33333 0,0.74667 -1.06667,0.96 -1.01333,0.21334 -4.32,0.16 l -3.57333,-0.0533 -0.0533,0.64 q -0.53333,3.94666 -1.22667,5.76 -0.64,1.81333 -1.70666,2.29333 -1.22667,0.53333 -2.13333,-0.21334 -0.42667,-0.32 -0.58667,-3.51999 -0.16,-3.25333 0.10667,-5.81333 1.01333,-9.86666 -0.26667,-13.12 -0.69333,-1.75999 0.85333,-2.55999 z m -20.69332,6.18666 q 0.8,-0.48 2.82667,-0.16 2.08,0.26667 3.73333,1.06667 3.78666,2.02666 2.56,6.61332 0,0.10667 -0.0533,0.32 -0.32,1.06667 0,1.49334 0.32,0.37333 2.50667,1.70666 0.42667,0.26667 0.64,0.37334 2.61333,1.59999 3.36,1.86666 0.96,0.32 0.90666,1.17333 -0.0533,0.8 -1.01333,1.06667 -0.48,0.16 -2.08,-0.16 -1.6,-0.32 -2.77333,-0.8 -0.10667,0 -0.26667,-0.0533 -0.16,-0.10667 -0.42666,-0.16 -0.26667,-0.10667 -0.42667,-0.21334 -0.85333,-0.32 -1.65333,-0.74666 -1.17333,-0.64 -1.38667,-0.64 -0.16,0 -0.74666,0.53333 -4.48,4.32 -6.24,3.94667 -0.69333,-0.10667 -0.64,-1.06667 0.0533,-0.74667 1.44,-3.14667 1.44,-2.45333 2.66666,-3.83999 0.42667,-0.42667 1.22667,-2.02667 0.8,-1.6 0.8,-1.92 0,-0.58666 -0.85333,-1.06666 -0.85334,-0.48 -2.88,-1.01334 -1.70667,-0.48 -2.08,-1.44 -0.37333,-0.95999 0.85333,-1.70666 z m 39.51999,-9.49333 q 0.53333,-0.16 1.44,0 0.90666,0.10667 1.38666,0.53333 0.85334,0.58667 1.06667,3.41334 0.26667,2.82666 -0.21333,5.59999 -0.16,0.85334 -0.26667,2.18667 -0.10667,1.54666 -0.26667,2.66666 -0.21333,1.38667 -0.21333,2.82667 0,1.33333 -0.16,1.76 -0.16,0.42666 -0.8,0.74666 -1.22667,0.64 -2.13333,-0.0533 -0.85333,-0.74667 -1.12,-2.61333 -0.21333,-1.49333 -0.32,-2.08 -0.16,-0.74667 -0.16,-2.29333 0,-1.6 -0.21333,-2.45333 -0.21334,-0.74667 -0.21334,-3.25334 0,-3.19999 0.48,-4.79999 0.53334,-1.65334 1.70667,-2.18667 z m -0.0533,27.78665 q 0.74667,-0.32 1.81334,0.0533 1.12,0.32 1.54666,0.96 0.26667,0.53334 0.21334,1.38667 -0.0533,0.8 -0.37334,1.12 -1.06666,0.96 -2.34666,0.69333 -1.28,-0.26666 -1.70667,-1.54666 -0.21333,-0.74667 0.0533,-1.54667 0.26666,-0.85333 0.79999,-1.12 z"
       id="text21"
       style="-inkscape-font-specification:iceSotong;stroke-width:7.55906;stroke-linecap:round;stroke-linejoin:round;paint-order:fill markers stroke"
       aria-label="먹고 저장하자!" />
  </g>
</svg>
